<svg width="20" height="20" viewBox="0 0 20 20" fill="none" xmlns="http://www.w3.org/2000/svg">
<circle cx="8" cy="7" r="6" fill="url(#paint0_radial_356_2467)"/>
<path d="M12.5 13H7.5V7H12.5V7.5H13.5V5.5C13.5 4.95 13.05 4.5 12.5 4.5H7.5C6.95 4.5 6.5 4.95 6.5 5.5V14.5C6.5 15.05 6.95 15.5 7.5 15.5H12.5C13.05 15.5 13.5 15.05 13.5 14.5V12.5H12.5V13ZM7.5 5.5H12.5V6H7.5V5.5ZM12.5 14.5H7.5V14H12.5V14.5Z" fill="white"/>
<path opacity="0.3" d="M7.5 5.5H12.5V6H7.5V5.5ZM7.5 14H12.5V14.5H7.5V14Z" fill="white"/>
<path d="M14.7325 7.92673C14.7553 7.88581 14.7637 7.8374 14.756 7.79198C14.7484 7.74656 14.7252 7.70778 14.6915 7.68404C14.6579 7.66029 14.6164 7.6535 14.5762 7.66512C14.5359 7.67675 14.5001 7.70585 14.4764 7.74614L14.1975 8.23425C14.1748 8.27517 14.1663 8.32358 14.174 8.369C14.1817 8.41442 14.2049 8.4532 14.2385 8.47694C14.2722 8.50069 14.3136 8.50748 14.3539 8.49586C14.3942 8.48423 14.43 8.45513 14.4536 8.41484L14.7325 7.92673V7.92673ZM15.6432 8.14728C15.6631 8.18701 15.6678 8.23539 15.6564 8.28178C15.6449 8.32817 15.6182 8.36879 15.5822 8.39471L14.9403 8.8554C14.9224 8.86922 14.9025 8.87895 14.8818 8.884C14.8611 8.88904 14.84 8.88931 14.8199 8.88477C14.7997 8.88024 14.7809 8.871 14.7644 8.8576C14.748 8.84421 14.7344 8.82693 14.7243 8.80681C14.7142 8.78668 14.7079 8.76412 14.7058 8.74047C14.7036 8.71681 14.7057 8.69255 14.7119 8.66913C14.718 8.64571 14.7281 8.62362 14.7416 8.60416C14.7551 8.5847 14.7716 8.56827 14.7902 8.55587L15.4321 8.09518C15.4682 8.06931 15.5107 8.06027 15.5503 8.07003C15.5899 8.0798 15.6233 8.10759 15.6432 8.14728V8.14728ZM13.7812 8.06415C13.7458 7.98697 13.6938 7.92232 13.6299 7.87581C13.5659 7.8293 13.4919 7.80232 13.4142 7.79722C13.3365 7.79212 13.2574 7.80904 13.1839 7.84653C13.1105 7.88402 13.0447 7.94094 12.9924 8.01236L11.1125 10.5803C11.0596 10.6525 11.027 10.7406 11.0192 10.8317C11.0114 10.9228 11.0289 11.0123 11.0692 11.0872L11.2775 11.4749C11.3149 11.5443 11.3701 11.598 11.4362 11.6291C11.5023 11.6602 11.5765 11.6674 11.6493 11.6498L11.9677 11.5729C11.9995 11.8181 12.1153 12.0316 12.2898 12.1673C12.4644 12.303 12.6837 12.3498 12.9 12.2975C13.1164 12.2453 13.3123 12.0982 13.4454 11.8883C13.5785 11.6783 13.638 11.4224 13.6109 11.1761L14.3793 10.9903C14.4555 10.9719 14.5281 10.9331 14.591 10.8771C14.654 10.8211 14.7054 10.7495 14.7411 10.6684C14.7768 10.5872 14.7957 10.4989 14.7963 10.4106C14.7968 10.3224 14.7789 10.2368 14.7442 10.1611L13.7812 8.06438L13.7812 8.06415ZM13.3028 11.2501C13.3165 11.4024 13.2777 11.5594 13.1945 11.6877C13.1114 11.8161 12.9904 11.9058 12.8571 11.938C12.7239 11.9701 12.5888 11.9422 12.4804 11.8601C12.372 11.778 12.2988 11.6482 12.2762 11.498L13.3028 11.2501ZM14.7423 9.41796C14.7537 9.37153 14.7805 9.33088 14.8166 9.30497C14.8527 9.27905 14.8952 9.26998 14.9348 9.27976L15.3331 9.37806C15.3728 9.38783 15.4062 9.41566 15.4261 9.4554C15.446 9.49515 15.4508 9.54356 15.4393 9.58999C15.4278 9.63642 15.4011 9.67707 15.365 9.70299C15.3289 9.7289 15.2863 9.73797 15.2467 9.72819L14.8484 9.62989C14.8088 9.62012 14.7754 9.59229 14.7555 9.55255C14.7356 9.5128 14.7308 9.46439 14.7423 9.41796Z" fill="white"/>
<path d="M10 19.5C4.7533 19.5 0.5 15.2467 0.5 10H-0.5C-0.5 15.799 4.20101 20.5 10 20.5V19.5ZM19.5 10C19.5 15.2467 15.2467 19.5 10 19.5V20.5C15.799 20.5 20.5 15.799 20.5 10H19.5ZM10 0.5C15.2467 0.5 19.5 4.7533 19.5 10H20.5C20.5 4.20101 15.799 -0.5 10 -0.5V0.5ZM10 -0.5C4.20101 -0.5 -0.5 4.20101 -0.5 10H0.5C0.5 4.7533 4.7533 0.5 10 0.5V-0.5Z" fill="url(#paint1_linear_356_2467)"/>
<defs>
<radialGradient id="paint0_radial_356_2467" cx="0" cy="0" r="1" gradientUnits="userSpaceOnUse" gradientTransform="translate(8 7) rotate(90) scale(6)">
<stop stop-color="#FF1E1E"/>
<stop offset="1" stop-color="#FF3030" stop-opacity="0"/>
</radialGradient>
<linearGradient id="paint1_linear_356_2467" x1="4.5" y1="1" x2="19.5" y2="20.5" gradientUnits="userSpaceOnUse">
<stop stop-color="#FF1E1E"/>
<stop offset="0.10625" stop-color="#A8A8A8" stop-opacity="0.2"/>
<stop offset="1" stop-color="#A8A8A8" stop-opacity="0.2"/>
</linearGradient>
</defs>
</svg>
