<svg width="108" height="108" viewBox="0 0 108 108" fill="none" xmlns="http://www.w3.org/2000/svg">
<g filter="url(#filter0_f_87_5)">
<circle cx="54" cy="54" r="50" fill="#FEA19A"/>
<path d="M90.5 61.5C90.5 81.3823 68.5538 104 49.5 104C30.4462 104 5.5 81.3823 5.5 61.5C5.5 41.6177 30.4462 20.5 49.5 20.5C68.5538 20.5 90.5 41.6177 90.5 61.5Z" fill="#FFB4AF"/>
<circle cx="34" cy="44" r="5" fill="#E6807C"/>
<circle cx="53" cy="44" r="5" fill="#E6807C"/>
<circle cx="64" cy="61" r="5" fill="#E6807C"/>
<circle cx="55" cy="81" r="5" fill="#E6807C"/>
<circle cx="35" cy="81" r="5" fill="#E6807C"/>
<circle cx="23" cy="61" r="5" fill="#E6807C"/>
<path d="M53 47H35L26 62.4839L35.5 79H53L62 62.4839L53 47Z" stroke="#E6807C" stroke-width="5"/>
</g>
<defs>
<filter id="filter0_f_87_5" x="0" y="0" width="108" height="108" filterUnits="userSpaceOnUse" color-interpolation-filters="sRGB">
<feFlood flood-opacity="0" result="BackgroundImageFix"/>
<feBlend mode="normal" in="SourceGraphic" in2="BackgroundImageFix" result="shape"/>
<feGaussianBlur stdDeviation="2" result="effect1_foregroundBlur_87_5"/>
</filter>
</defs>
</svg>
