<svg width="20" height="20" viewBox="0 0 20 20" fill="none" xmlns="http://www.w3.org/2000/svg">
<g clip-path="url(#clip0_187_2)">
<path d="M17.7398 1.94714C17.217 1.49307 15.0995 0.0333699 10.3838 0.0142072C10.3838 0.0142072 4.81941 -0.301561 2.1088 2.05712C0.601049 3.48683 0.0729854 5.58056 0.0123591 8.17753C-0.0482671 10.7745 -0.115923 15.6418 4.83171 16.9649H4.8361L4.83171 18.9803C4.83171 18.9803 4.7992 19.7968 5.36504 19.9609C6.04863 20.1642 6.4528 19.5427 7.10739 18.8745C7.46587 18.5071 7.95967 17.9689 8.33485 17.5581C10.4849 17.7469 12.6531 17.59 14.7481 17.094L14.6163 17.1207C15.2998 16.9099 19.1676 16.4408 19.7932 11.5743C20.4469 6.55036 19.4822 3.38102 17.7398 1.94714ZM18.3127 11.2077C17.7794 15.2694 14.6461 15.5277 14.0697 15.7027C12.8115 16.0059 11.367 16.1792 9.8795 16.1792C9.45248 16.1792 9.02898 16.1651 8.60986 16.1367L8.6661 16.1401C8.6661 16.1401 6.52397 18.5887 5.85708 19.2253C5.63918 19.4319 5.39931 19.4152 5.4037 19.0028C5.4037 18.7337 5.4204 15.6552 5.4204 15.6552C1.23191 14.5537 1.47442 10.4079 1.52362 8.24252C1.57283 6.07713 2.0016 4.29749 3.27827 3.10274C5.57328 1.13064 10.2977 1.42308 10.2977 1.42308C14.2894 1.43891 16.2004 2.57951 16.645 2.96194C18.1159 4.15752 18.8654 7.01777 18.3127 11.2077ZM12.5919 8.05172V8.06339C12.59 8.12827 12.562 8.19 12.5135 8.23584C12.4651 8.28168 12.3999 8.30813 12.3315 8.30974C12.263 8.31134 12.1966 8.28797 12.1458 8.24446C12.095 8.20094 12.0638 8.1406 12.0585 8.07588C12.0764 7.90193 12.0543 7.72554 11.9937 7.56048C11.9331 7.39543 11.8354 7.24481 11.7074 7.11903C11.5794 6.99324 11.4242 6.89529 11.2524 6.83192C11.0807 6.76855 10.8964 6.74128 10.7125 6.75199H10.716C10.6477 6.74697 10.584 6.71728 10.5382 6.66904C10.4923 6.62081 10.4678 6.55771 10.4696 6.49279C10.4714 6.42787 10.4994 6.36609 10.5479 6.32021C10.5964 6.27433 10.6616 6.24786 10.73 6.24626H10.745H10.7441L10.8047 6.24543C11.05 6.24535 11.2927 6.29309 11.5177 6.38568C11.7428 6.47827 11.9453 6.61374 12.1128 6.78367C12.2804 6.9536 12.4092 7.15437 12.4915 7.37351C12.5737 7.59265 12.6076 7.82548 12.591 8.05755V8.05256L12.5919 8.05172ZM13.4275 8.49413C13.4688 6.83781 12.3775 5.54141 10.3056 5.39644C10.2697 5.39537 10.2343 5.38743 10.2017 5.37309C10.1691 5.35876 10.1398 5.33832 10.1157 5.313C10.0916 5.28769 10.0732 5.25802 10.0614 5.22577C10.0497 5.19353 10.045 5.15937 10.0476 5.12535C10.0501 5.09133 10.0599 5.05815 10.0763 5.02779C10.0927 4.99744 10.1154 4.97054 10.143 4.94871C10.1706 4.92687 10.2026 4.91055 10.2371 4.90073C10.2715 4.89091 10.3077 4.88778 10.3434 4.89154H10.3425H10.3575C10.8492 4.89152 11.3357 4.98681 11.7871 5.17155C12.2386 5.3563 12.6454 5.62659 12.9827 5.96584C13.32 6.30509 13.5806 6.70614 13.7485 7.14435C13.9164 7.58257 13.988 8.0487 13.959 8.51413L13.9599 8.50496C13.9552 8.56954 13.9246 8.62995 13.8744 8.6738C13.8242 8.71765 13.7582 8.74161 13.6899 8.74076C13.6217 8.7399 13.5563 8.7143 13.5074 8.66921C13.4584 8.62412 13.4295 8.56297 13.4266 8.4983V8.49163L13.4275 8.49413ZM15.3605 9.01819V9.01986C15.3569 9.08444 15.3274 9.14528 15.2781 9.18992C15.2287 9.23455 15.1632 9.2596 15.095 9.25992C15.0268 9.26024 14.9611 9.23581 14.9113 9.19164C14.8615 9.14747 14.8314 9.0869 14.8271 9.02236C14.806 5.83801 12.5664 4.1042 9.85226 4.08587C9.8173 4.08587 9.78268 4.07934 9.75038 4.06665C9.71808 4.05397 9.68873 4.03537 9.66401 4.01193C9.63929 3.98849 9.61968 3.96066 9.6063 3.93003C9.59292 3.8994 9.58604 3.86657 9.58604 3.83342C9.58604 3.80027 9.59292 3.76744 9.6063 3.73681C9.61968 3.70619 9.63929 3.67836 9.66401 3.65491C9.68873 3.63147 9.71808 3.61288 9.75038 3.60019C9.78268 3.5875 9.8173 3.58097 9.85226 3.58097C12.8915 3.60097 15.3341 5.58973 15.3587 9.01736L15.3605 9.01819ZM14.8992 12.8491V12.8566C14.4546 13.5989 13.6225 14.4187 12.7658 14.1571L12.7579 14.1455C11.2306 13.6125 9.79889 12.8597 8.51321 11.9134L8.54924 11.9384C7.90948 11.4567 7.32913 10.9081 6.81919 10.3029L6.8025 10.2821C6.34078 9.73097 5.92871 9.14402 5.57064 8.52746L5.5355 8.46164C5.11186 7.79937 4.76063 7.09782 4.48728 6.3679L4.46092 6.28625C4.18503 5.47392 5.04522 4.68491 5.83248 4.26333H5.84039C5.99527 4.16932 6.18125 4.13273 6.36279 4.16055C6.54433 4.18837 6.7087 4.27865 6.82447 4.41414L6.82534 4.4158C6.82534 4.4158 7.33583 4.99318 7.55462 5.27896C7.76022 5.54474 8.03699 5.97048 8.18021 6.20794C8.28804 6.37019 8.33193 6.56335 8.30411 6.75331C8.2763 6.94327 8.17857 7.1178 8.0282 7.24605L8.02733 7.24689L7.53353 7.62181C7.45654 7.69228 7.39704 7.7781 7.35935 7.87306C7.32166 7.96803 7.30673 8.06975 7.31563 8.17087V8.16837C7.56013 8.94098 8.00143 9.64465 8.60057 10.2173C9.19971 10.7899 9.93828 11.2139 10.7511 11.4519L10.788 11.461C10.8941 11.469 11.0008 11.4546 11.1004 11.4191C11.2 11.3835 11.2902 11.3276 11.3644 11.2552L11.7598 10.787C11.8956 10.6438 12.0806 10.5509 12.2819 10.5248C12.4831 10.4987 12.6876 10.5411 12.859 10.6445L12.8555 10.6429C13.5698 11.0286 14.1875 11.4527 14.7507 11.9334L14.741 11.9251C14.8839 12.0331 14.979 12.1879 15.0076 12.359C15.0362 12.5302 14.9963 12.7053 14.8957 12.8499L14.8974 12.8474L14.8992 12.8491Z" fill="white"/>
</g>
<defs>
<clipPath id="clip0_187_2">
<rect width="20" height="20" fill="white"/>
</clipPath>
</defs>
</svg>
