<svg width="28" height="25" viewBox="0 0 28 25" fill="none" xmlns="http://www.w3.org/2000/svg">
<rect width="15" height="17" rx="2" transform="matrix(-0.942163 0.335154 0.335154 0.942163 14.4722 0)" fill="#F86B63"/>
<rect width="20" height="20" rx="5" transform="matrix(-1 0 0 1 27.1699 5)" fill="#CC0C01" fill-opacity="0.75"/>
<path d="M19.2765 19.4438L16.5606 16.4412V9.23299C16.5606 9.10485 16.4921 9 16.4083 9H15.4922C15.4084 9 15.3398 9.10485 15.3398 9.23299V17.2537C15.3398 17.3294 15.3627 17.3993 15.4027 17.443L18.5528 20.9554C18.6213 21.0311 18.7166 21.0078 18.7661 20.9058L19.3108 19.77C19.3603 19.6623 19.3451 19.5166 19.2765 19.4438V19.4438Z" fill="white"/>
</svg>
