<svg width="28" height="25" viewBox="0 0 28 25" fill="none" xmlns="http://www.w3.org/2000/svg">
<rect width="15" height="17" rx="2" transform="matrix(-0.942163 0.335154 0.335154 0.942163 14.8115 0)" fill="#F86B63"/>
<rect width="20" height="20" rx="5" transform="matrix(-1 0 0 1 27.5093 5)" fill="#CC0C01" fill-opacity="0.75"/>
<path d="M18.0328 10.6464C17.8375 10.4512 17.5209 10.4512 17.3256 10.6464L14.1437 13.8284C13.9484 14.0237 13.9484 14.3403 14.1437 14.5355C14.3389 14.7308 14.6555 14.7308 14.8508 14.5355L17.6792 11.7071L20.5076 14.5355C20.7029 14.7308 21.0195 14.7308 21.2147 14.5355C21.41 14.3403 21.41 14.0237 21.2147 13.8284L18.0328 10.6464ZM18.1792 19V11H17.1792V19H18.1792Z" fill="white"/>
</svg>
