<svg width="27" height="25" viewBox="0 0 27 25" fill="none" xmlns="http://www.w3.org/2000/svg">
<rect width="15" height="17" rx="2" transform="matrix(-0.942163 0.335154 0.335154 0.942163 14.3022 0)" fill="#F86B63"/>
<rect width="20" height="20" rx="5" transform="matrix(-1 0 0 1 27 5)" fill="#CC0C01" fill-opacity="0.75"/>
<path d="M16.9981 13.6385C17.3509 13.6385 17.6813 13.7681 17.9315 14.0051C18.1804 14.242 18.3185 14.555 18.3185 14.8891C18.3185 15.2233 18.1804 15.5363 17.9315 15.7732C17.6813 16.009 17.3509 16.1398 16.9981 16.1398C16.6453 16.1398 16.3149 16.009 16.0647 15.7732C15.8157 15.5363 15.6777 15.2233 15.6777 14.8891C15.6777 14.555 15.8157 14.242 16.0647 14.0051C16.1869 13.8885 16.3323 13.796 16.4925 13.7331C16.6528 13.6701 16.8246 13.638 16.9981 13.6385V13.6385ZM12.1329 16.2706L12.9047 15.6458C12.8681 15.4334 12.8492 15.2166 12.8492 15.0009C12.8492 14.7852 12.8681 14.5673 12.9047 14.356L12.1329 13.7313C12.0746 13.684 12.0329 13.621 12.0133 13.5508C11.9937 13.4805 11.9972 13.4062 12.0232 13.3378L12.0338 13.3088C12.2462 12.7463 12.5644 12.2248 12.9731 11.7698L12.9943 11.7463C13.044 11.6911 13.1101 11.6513 13.184 11.6324C13.258 11.6134 13.3362 11.6161 13.4085 11.6401L14.3667 11.9631C14.7207 11.6882 15.1148 11.4714 15.542 11.3205L15.7272 10.3716C15.7412 10.3001 15.7778 10.2344 15.8322 10.1831C15.8866 10.1318 15.9561 10.0973 16.0317 10.0844L16.0635 10.0788C16.6771 9.97374 17.3238 9.97374 17.9374 10.0788L17.9692 10.0844C18.0447 10.0973 18.1143 10.1318 18.1687 10.1831C18.2231 10.2344 18.2597 10.3001 18.2737 10.3716L18.4601 11.325C18.8832 11.4771 19.2774 11.6934 19.6271 11.9654L20.5924 11.6401C20.6646 11.6159 20.7429 11.6131 20.8169 11.6321C20.8909 11.6511 20.957 11.6909 21.0065 11.7463L21.0278 11.7698C21.4357 12.2253 21.7539 12.7466 21.9671 13.3088L21.9777 13.3378C22.0308 13.4776 21.9871 13.634 21.8679 13.7313L21.0868 14.3627C21.1234 14.5728 21.1411 14.7874 21.1411 14.9998C21.1411 15.2144 21.1234 15.429 21.0868 15.6368L21.8656 16.2683C21.9239 16.3156 21.9656 16.3785 21.9852 16.4488C22.0048 16.5191 22.0014 16.5934 21.9753 16.6617L21.9647 16.6908C21.7511 17.253 21.4361 17.7727 21.0254 18.2298L21.0042 18.2533C20.9546 18.3085 20.8884 18.3482 20.8145 18.3672C20.7405 18.3862 20.6623 18.3834 20.59 18.3594L19.6248 18.0342C19.2731 18.308 18.8814 18.5248 18.4577 18.6746L18.2713 19.628C18.2573 19.6994 18.2207 19.7652 18.1663 19.8165C18.112 19.8678 18.0424 19.9022 17.9669 19.9152L17.935 19.9208C17.3154 20.0264 16.6808 20.0264 16.0612 19.9208L16.0293 19.9152C15.9538 19.9022 15.8842 19.8678 15.8298 19.8165C15.7754 19.7652 15.7388 19.6994 15.7249 19.628L15.5396 18.6791C15.1124 18.5271 14.7183 18.3114 14.3643 18.0364L13.4062 18.3594C13.3339 18.3836 13.2556 18.3864 13.1816 18.3675C13.1076 18.3485 13.0415 18.3087 12.992 18.2533L12.9707 18.2298C12.5601 17.7704 12.245 17.253 12.0315 16.6908L12.0208 16.6617C11.9701 16.5231 12.0138 16.3678 12.1329 16.2706ZM16.9981 16.854C18.1439 16.854 19.0725 15.9744 19.0725 14.8891C19.0725 13.8039 18.1439 12.9243 16.9981 12.9243C15.8523 12.9243 14.9236 13.8039 14.9236 14.8891C14.9236 15.9744 15.8523 16.854 16.9981 16.854Z" fill="white"/>
</svg>
