<svg width="70" height="70" viewBox="0 0 70 70" fill="none" xmlns="http://www.w3.org/2000/svg">
<ellipse cx="24" cy="22.5" rx="14" ry="12.5" fill="url(#paint0_radial_356_2437)"/>
<path d="M48.6325 26.625L40.0575 17.875C39.8125 17.625 39.5675 17.5 39.2 17.5H26.95C25.6025 17.5 24.5 18.625 24.5 20V50C24.5 51.375 25.6025 52.5 26.95 52.5H46.55C47.8975 52.5 49 51.375 49 50V27.5C49 27.125 48.8775 26.875 48.6325 26.625ZM39.2 20.5L46.06 27.5H39.2V20.5ZM46.55 50H26.95V20H36.75V27.5C36.75 28.875 37.8525 30 39.2 30H46.55V50Z" fill="white"/>
<path d="M31.5 39.375H42V42H31.5V39.375ZM31.5 31.5H42V34.125H31.5V31.5Z" fill="white"/>
<path d="M35 69.5C15.9462 69.5 0.5 54.0538 0.5 35H-0.5C-0.5 54.6061 15.3939 70.5 35 70.5V69.5ZM69.5 35C69.5 54.0538 54.0538 69.5 35 69.5V70.5C54.6061 70.5 70.5 54.6061 70.5 35H69.5ZM35 0.5C54.0538 0.5 69.5 15.9462 69.5 35H70.5C70.5 15.3939 54.6061 -0.5 35 -0.5V0.5ZM35 -0.5C15.3939 -0.5 -0.5 15.3939 -0.5 35H0.5C0.5 15.9462 15.9462 0.5 35 0.5V-0.5Z" fill="url(#paint1_linear_356_2437)"/>
<defs>
<radialGradient id="paint0_radial_356_2437" cx="0" cy="0" r="1" gradientUnits="userSpaceOnUse" gradientTransform="translate(24 22.5) rotate(90) scale(12.5 14)">
<stop stop-color="#FF1E1E"/>
<stop offset="1" stop-color="#FF3030" stop-opacity="0"/>
</radialGradient>
<linearGradient id="paint1_linear_356_2437" x1="15.75" y1="3.5" x2="68.25" y2="71.75" gradientUnits="userSpaceOnUse">
<stop stop-color="#FF1E1E"/>
<stop offset="0.10625" stop-color="#A8A8A8" stop-opacity="0.2"/>
<stop offset="1" stop-color="#A8A8A8" stop-opacity="0.2"/>
</linearGradient>
</defs>
</svg>
