<svg width="139" height="132" viewBox="0 0 139 132" fill="none" xmlns="http://www.w3.org/2000/svg">
<g filter="url(#filter0_f_87_6)">
<path d="M135 66C135 100.242 105.675 128 69.5 128C33.3253 128 4 100.242 4 66C4 31.7583 33.3253 4 69.5 4C105.675 4 135 31.7583 135 66Z" fill="#FEA19A"/>
<path d="M135 60.0659C135 84.8294 106.341 113 81.4588 113C56.5768 113 24 84.8294 24 60.0659C24 35.3023 56.5768 9 81.4588 9C106.341 9 135 35.3023 135 60.0659Z" fill="#FFB4AF"/>
<path d="M88 24.2361L96.0295 48.9483L96.254 49.6393H96.9806H122.965L101.943 64.9123L101.355 65.3394L101.58 66.0304L109.609 90.7426L88.5878 75.4696L88 75.0426L87.4122 75.4696L66.3907 90.7427L74.4202 66.0304L74.6447 65.3394L74.0569 64.9123L53.0354 49.6393H79.0194H79.746L79.9705 48.9483L88 24.2361Z" stroke="#393939" stroke-width="2"/>
</g>
<defs>
<filter id="filter0_f_87_6" x="0" y="0" width="139" height="132" filterUnits="userSpaceOnUse" color-interpolation-filters="sRGB">
<feFlood flood-opacity="0" result="BackgroundImageFix"/>
<feBlend mode="normal" in="SourceGraphic" in2="BackgroundImageFix" result="shape"/>
<feGaussianBlur stdDeviation="2" result="effect1_foregroundBlur_87_6"/>
</filter>
</defs>
</svg>
