<svg width="22" height="22" viewBox="0 0 22 22" fill="none" xmlns="http://www.w3.org/2000/svg">
<path d="M21 11C21 5.477 16.523 1 11 1C5.477 1 1 5.477 1 11C1 16.523 5.477 21 11 21" stroke="black" stroke-width="1.5" stroke-linecap="round" stroke-linejoin="round"/>
<path d="M12 1.04999C12 1.04999 15 4.99999 15 11" stroke="black" stroke-width="1.5" stroke-linecap="round" stroke-linejoin="round"/>
<path d="M10 20.95C10 20.95 7 17 7 11C7 4.99999 10 1.04999 10 1.04999" stroke="black" stroke-width="1.5" stroke-linecap="round" stroke-linejoin="round"/>
<path d="M1.62988 14.5H10.9999" stroke="black" stroke-width="1.5" stroke-linecap="round" stroke-linejoin="round"/>
<path d="M1.62988 7.5H20.3699" stroke="black" stroke-width="1.5" stroke-linecap="round" stroke-linejoin="round"/>
<path d="M20.8792 16.917C21.3732 17.221 21.3422 17.96 20.8342 18.018L18.2672 18.309L17.1162 20.621C16.8882 21.08 16.1832 20.855 16.0662 20.287L14.8112 14.171C14.7122 13.691 15.1442 13.389 15.5612 13.646L20.8792 16.917V16.917Z" stroke="black" stroke-width="1.5"/>
</svg>
