<svg width="20" height="20" viewBox="0 0 20 20" fill="none" xmlns="http://www.w3.org/2000/svg">
<circle cx="8" cy="7" r="6" fill="url(#paint0_radial_356_2442)"/>
<path d="M13.88 6.86786L11.08 4.11786C11 4.03929 10.92 4 10.8 4H6.8C6.36 4 6 4.35357 6 4.78571V14.2143C6 14.6464 6.36 15 6.8 15H13.2C13.64 15 14 14.6464 14 14.2143V7.14286C14 7.025 13.96 6.94643 13.88 6.86786ZM10.8 4.94286L13.04 7.14286H10.8V4.94286ZM13.2 14.2143H12.2857H11.7143H10H6.8V4.78571H10V7.14286C10 7.575 10.36 7.92857 10.8 7.92857H13.2V12.2092V12.8688V14.2143Z" fill="white"/>
<path d="M10.1655 9.52881V9.96094H9.93701V9.52881H10.1655ZM10.1377 11.9209V12.3149H9.90918V11.9209H10.1377ZM10.2988 11.4404C10.2988 11.3848 10.2886 11.3374 10.2681 11.2983C10.2485 11.2593 10.2163 11.2246 10.1714 11.1943C10.1274 11.1641 10.0679 11.1348 9.99268 11.1064C9.86572 11.0576 9.75391 11.0059 9.65723 10.9512C9.56152 10.8955 9.48682 10.8267 9.43311 10.7446C9.37939 10.6616 9.35254 10.5566 9.35254 10.4297C9.35254 10.3086 9.38135 10.2036 9.43896 10.1147C9.49658 10.0259 9.57617 9.95752 9.67773 9.90967C9.78027 9.86084 9.89941 9.83643 10.0352 9.83643C10.1387 9.83643 10.2324 9.85205 10.3164 9.8833C10.4004 9.91357 10.4727 9.9585 10.5332 10.0181C10.5938 10.0767 10.6401 10.1484 10.6724 10.2334C10.7046 10.3184 10.7207 10.4155 10.7207 10.5249H10.3003C10.3003 10.4663 10.2939 10.4146 10.2812 10.3696C10.2686 10.3247 10.25 10.2871 10.2256 10.2568C10.2021 10.2266 10.1738 10.2041 10.1406 10.1895C10.1074 10.1738 10.0708 10.166 10.0308 10.166C9.97119 10.166 9.92236 10.1777 9.88428 10.2012C9.84619 10.2246 9.81836 10.2563 9.80078 10.2964C9.78418 10.3354 9.77588 10.3804 9.77588 10.4312C9.77588 10.481 9.78467 10.5244 9.80225 10.5615C9.8208 10.5986 9.85254 10.6328 9.89746 10.6641C9.94238 10.6943 10.0039 10.7256 10.082 10.7578C10.209 10.8066 10.3203 10.8594 10.416 10.916C10.5117 10.9727 10.5864 11.042 10.6401 11.124C10.6938 11.2061 10.7207 11.3105 10.7207 11.4375C10.7207 11.5635 10.6914 11.6709 10.6328 11.7598C10.5742 11.8477 10.4922 11.915 10.3867 11.9619C10.2812 12.0078 10.1592 12.0308 10.0205 12.0308C9.93066 12.0308 9.84131 12.019 9.75244 11.9956C9.66357 11.9712 9.58301 11.9321 9.51074 11.8784C9.43848 11.8247 9.38086 11.7534 9.33789 11.6646C9.29492 11.5747 9.27344 11.4644 9.27344 11.3335H9.69531C9.69531 11.4048 9.70459 11.4644 9.72314 11.5122C9.7417 11.5591 9.76611 11.5967 9.79639 11.625C9.82764 11.6523 9.86279 11.6719 9.90186 11.6836C9.94092 11.6953 9.98047 11.7012 10.0205 11.7012C10.083 11.7012 10.1343 11.6899 10.1743 11.6675C10.2153 11.645 10.2461 11.6143 10.2666 11.5752C10.2881 11.5352 10.2988 11.4902 10.2988 11.4404Z" fill="white"/>
<rect x="7.25" y="8.25" width="5.5" height="4.5" rx="2.25" stroke="white" stroke-width="0.5"/>
<path d="M10 19.5C4.7533 19.5 0.5 15.2467 0.5 10H-0.5C-0.5 15.799 4.20101 20.5 10 20.5V19.5ZM19.5 10C19.5 15.2467 15.2467 19.5 10 19.5V20.5C15.799 20.5 20.5 15.799 20.5 10H19.5ZM10 0.5C15.2467 0.5 19.5 4.7533 19.5 10H20.5C20.5 4.20101 15.799 -0.5 10 -0.5V0.5ZM10 -0.5C4.20101 -0.5 -0.5 4.20101 -0.5 10H0.5C0.5 4.7533 4.7533 0.5 10 0.5V-0.5Z" fill="url(#paint1_linear_356_2442)"/>
<defs>
<radialGradient id="paint0_radial_356_2442" cx="0" cy="0" r="1" gradientUnits="userSpaceOnUse" gradientTransform="translate(8 7) rotate(90) scale(6)">
<stop stop-color="#FF1E1E"/>
<stop offset="1" stop-color="#FF3030" stop-opacity="0"/>
</radialGradient>
<linearGradient id="paint1_linear_356_2442" x1="4.5" y1="1" x2="19.5" y2="20.5" gradientUnits="userSpaceOnUse">
<stop stop-color="#FF1E1E"/>
<stop offset="0.10625" stop-color="#A8A8A8" stop-opacity="0.2"/>
<stop offset="1" stop-color="#A8A8A8" stop-opacity="0.2"/>
</linearGradient>
</defs>
</svg>
