<svg width="70" height="70" viewBox="0 0 70 70" fill="none" xmlns="http://www.w3.org/2000/svg">
<ellipse cx="24" cy="22.5" rx="14" ry="12.5" fill="url(#paint0_radial_356_2432)"/>
<path d="M41.0114 38.6101H39.7467L39.2985 38.1778C40.9216 36.2952 41.8137 33.8917 41.8119 31.4059C41.8119 29.3478 41.2016 27.336 40.0582 25.6247C38.9148 23.9135 37.2896 22.5797 35.3881 21.7921C33.4867 21.0045 31.3944 20.7984 29.3758 21.2C27.3573 21.6015 25.5031 22.5925 24.0478 24.0478C22.5925 25.5031 21.6015 27.3573 21.2 29.3758C20.7984 31.3944 21.0045 33.4867 21.7921 35.3881C22.5797 37.2896 23.9135 38.9148 25.6247 40.0582C27.336 41.2016 29.3478 41.8119 31.4059 41.8119C33.9834 41.8119 36.3528 40.8674 38.1778 39.2985L38.6101 39.7467V41.0114L46.6146 49L49 46.6146L41.0114 38.6101ZM31.4059 38.6101C27.4197 38.6101 24.2018 35.3922 24.2018 31.4059C24.2018 27.4197 27.4197 24.2018 31.4059 24.2018C35.3922 24.2018 38.6101 27.4197 38.6101 31.4059C38.6101 35.3922 35.3922 38.6101 31.4059 38.6101Z" fill="white"/>
<path d="M35 69.5C15.9462 69.5 0.5 54.0538 0.5 35H-0.5C-0.5 54.6061 15.3939 70.5 35 70.5V69.5ZM69.5 35C69.5 54.0538 54.0538 69.5 35 69.5V70.5C54.6061 70.5 70.5 54.6061 70.5 35H69.5ZM35 0.5C54.0538 0.5 69.5 15.9462 69.5 35H70.5C70.5 15.3939 54.6061 -0.5 35 -0.5V0.5ZM35 -0.5C15.3939 -0.5 -0.5 15.3939 -0.5 35H0.5C0.5 15.9462 15.9462 0.5 35 0.5V-0.5Z" fill="url(#paint1_linear_356_2432)"/>
<defs>
<radialGradient id="paint0_radial_356_2432" cx="0" cy="0" r="1" gradientUnits="userSpaceOnUse" gradientTransform="translate(24 22.5) rotate(90) scale(12.5 14)">
<stop stop-color="#FF1E1E"/>
<stop offset="1" stop-color="#FF3030" stop-opacity="0"/>
</radialGradient>
<linearGradient id="paint1_linear_356_2432" x1="15.75" y1="3.5" x2="68.25" y2="71.75" gradientUnits="userSpaceOnUse">
<stop stop-color="#FF1E1E"/>
<stop offset="0.10625" stop-color="#A8A8A8" stop-opacity="0.2"/>
<stop offset="1" stop-color="#A8A8A8" stop-opacity="0.2"/>
</linearGradient>
</defs>
</svg>
