<svg width="27" height="25" viewBox="0 0 27 25" fill="none" xmlns="http://www.w3.org/2000/svg">
<rect x="12.6978" width="15" height="17" rx="2" transform="rotate(19.5819 12.6978 0)" fill="#F86B63"/>
<rect y="5" width="20" height="20" rx="5" fill="#CC0C01" fill-opacity="0.75"/>
<path d="M13.4979 11.1576C13.3544 11.0778 13.1966 11.027 13.0334 11.0082C12.8703 10.9894 12.7051 11.003 12.5472 11.0481C12.3893 11.0932 12.2419 11.1689 12.1133 11.2711C11.9847 11.3732 11.8775 11.4997 11.7979 11.6433L9.47723 15.8195L8.14911 14.4914C8.0338 14.372 7.89587 14.2768 7.74337 14.2113C7.59086 14.1458 7.42684 14.1113 7.26086 14.1098C7.09489 14.1084 6.93029 14.14 6.77667 14.2029C6.62305 14.2657 6.48348 14.3585 6.36612 14.4759C6.24875 14.5933 6.15593 14.7328 6.09308 14.8864C6.03023 15.0401 5.9986 15.2047 6.00005 15.3706C6.00149 15.5366 6.03597 15.7006 6.10148 15.8531C6.16699 16.0056 6.26222 16.1436 6.38161 16.2589L8.88161 18.7589C9.11786 18.9958 9.43661 19.1258 9.76536 19.1258L9.93849 19.1133C10.1301 19.0865 10.3128 19.0156 10.4724 18.9061C10.6319 18.7967 10.7639 18.6517 10.8579 18.4826L13.9829 12.8576C14.0626 12.7142 14.1134 12.5564 14.1322 12.3933C14.151 12.2302 14.1375 12.065 14.0925 11.9072C14.0474 11.7493 13.9717 11.6019 13.8697 11.4733C13.7677 11.3447 13.6413 11.2374 13.4979 11.1576V11.1576Z" fill="white"/>
</svg>
