<svg width="20" height="20" viewBox="0 0 20 20" fill="none" xmlns="http://www.w3.org/2000/svg">
<circle cx="8" cy="7" r="6" fill="url(#paint0_radial_356_2447)"/>
<path d="M13.0562 10C13.0562 9.94 13.0562 9.875 13.0513 9.815L14 9.08L12.7775 6.915L11.6822 7.385C11.5844 7.32 11.4768 7.255 11.3692 7.2L11.2225 6H8.77751L8.63081 7.205C8.52323 7.26 8.42054 7.325 8.31785 7.39L7.22249 6.915L6 9.08L6.94866 9.815C6.94377 9.875 6.94377 9.94 6.94377 10C6.94377 10.06 6.94377 10.125 6.94866 10.185L6 10.92L7.22249 13.085L8.31785 12.615C8.41565 12.68 8.52323 12.745 8.63081 12.8L8.77751 14H11.2225L11.3692 12.795C11.4768 12.74 11.5795 12.68 11.6822 12.61L12.7775 13.08L14 10.915L13.0513 10.18C13.0562 10.125 13.0562 10.06 13.0562 10ZM12.3619 11.82L11.5159 11.455C11.2421 11.755 10.8802 11.975 10.4743 12.07L10.357 13H9.64303L9.53056 12.07C9.12469 11.975 8.76284 11.755 8.489 11.455L7.64303 11.82L7.28606 11.185L8.01467 10.62C7.95599 10.425 7.92665 10.22 7.92665 10.005C7.92665 9.79 7.95599 9.585 8.01467 9.39L7.28606 8.825L7.64303 8.19L8.489 8.555C8.76284 8.255 9.12469 8.035 9.53056 7.94L9.64303 7H10.3619L10.4743 7.93C10.8802 8.025 11.2421 8.245 11.5159 8.545L12.3619 8.18L12.7188 8.815L11.9902 9.38C12.0489 9.575 12.0782 9.78 12.0782 9.995C12.0782 10.21 12.0489 10.415 11.9902 10.61L12.7188 11.175L12.3619 11.82Z" fill="white"/>
<path d="M9.42871 10.0596L9.80371 10.3096L10.4287 9.80957" stroke="white" stroke-width="0.5" stroke-linecap="round" stroke-linejoin="round"/>
<rect x="8.53564" y="8.53571" width="2.92857" height="2.92857" rx="1.46429" stroke="white" stroke-width="0.5"/>
<path d="M10 19.5C4.7533 19.5 0.5 15.2467 0.5 10H-0.5C-0.5 15.799 4.20101 20.5 10 20.5V19.5ZM19.5 10C19.5 15.2467 15.2467 19.5 10 19.5V20.5C15.799 20.5 20.5 15.799 20.5 10H19.5ZM10 0.5C15.2467 0.5 19.5 4.7533 19.5 10H20.5C20.5 4.20101 15.799 -0.5 10 -0.5V0.5ZM10 -0.5C4.20101 -0.5 -0.5 4.20101 -0.5 10H0.5C0.5 4.7533 4.7533 0.5 10 0.5V-0.5Z" fill="url(#paint1_linear_356_2447)"/>
<defs>
<radialGradient id="paint0_radial_356_2447" cx="0" cy="0" r="1" gradientUnits="userSpaceOnUse" gradientTransform="translate(8 7) rotate(90) scale(6)">
<stop stop-color="#FF1E1E"/>
<stop offset="1" stop-color="#FF3030" stop-opacity="0"/>
</radialGradient>
<linearGradient id="paint1_linear_356_2447" x1="4.5" y1="1" x2="19.5" y2="20.5" gradientUnits="userSpaceOnUse">
<stop stop-color="#FF1E1E"/>
<stop offset="0.10625" stop-color="#A8A8A8" stop-opacity="0.2"/>
<stop offset="1" stop-color="#A8A8A8" stop-opacity="0.2"/>
</linearGradient>
</defs>
</svg>
