<svg width="20" height="20" viewBox="0 0 20 20" fill="none" xmlns="http://www.w3.org/2000/svg">
<circle cx="8" cy="7" r="6" fill="url(#paint0_radial_356_2452)"/>
<path d="M7.41299 10.8774H8.72695C8.70059 11.3081 8.58193 11.6904 8.371 12.0244C8.16299 12.3584 7.87148 12.6191 7.49648 12.8066C7.12441 12.9941 6.67617 13.0879 6.15176 13.0879C5.7416 13.0879 5.37393 13.0176 5.04873 12.877C4.72354 12.7334 4.44521 12.5283 4.21377 12.2617C3.98525 11.9951 3.81094 11.6729 3.69082 11.2949C3.5707 10.917 3.51064 10.4937 3.51064 10.0249V9.58105C3.51064 9.1123 3.57217 8.68896 3.69521 8.31104C3.82119 7.93018 3.9999 7.60645 4.23135 7.33984C4.46572 7.07324 4.74551 6.86816 5.0707 6.72461C5.3959 6.58105 5.75918 6.50928 6.16055 6.50928C6.69375 6.50928 7.14346 6.60596 7.50967 6.79932C7.87881 6.99268 8.16445 7.25928 8.3666 7.59912C8.57168 7.93896 8.69473 8.32568 8.73574 8.75928H7.41738C7.40273 8.50146 7.35146 8.2832 7.26357 8.10449C7.17568 7.92285 7.04238 7.78662 6.86367 7.6958C6.68789 7.60205 6.45352 7.55518 6.16055 7.55518C5.94082 7.55518 5.74893 7.59619 5.58486 7.67822C5.4208 7.76025 5.28311 7.88477 5.17178 8.05176C5.06045 8.21875 4.97695 8.42969 4.92129 8.68457C4.86855 8.93652 4.84219 9.23242 4.84219 9.57227V10.0249C4.84219 10.356 4.86709 10.6475 4.91689 10.8994C4.9667 11.1484 5.04287 11.3594 5.14541 11.5322C5.25088 11.7021 5.38564 11.8311 5.54971 11.9189C5.7167 12.0039 5.91738 12.0464 6.15176 12.0464C6.42715 12.0464 6.6542 12.0024 6.83291 11.9146C7.01162 11.8267 7.14785 11.6963 7.2416 11.5234C7.33828 11.3506 7.39541 11.1353 7.41299 10.8774ZM10.3292 9.28223V13H9.06357V8.24512H10.2545L10.3292 9.28223ZM11.7618 8.21436L11.7398 9.3877C11.6783 9.37891 11.6036 9.37158 11.5157 9.36572C11.4308 9.35693 11.3531 9.35254 11.2828 9.35254C11.1041 9.35254 10.9488 9.37598 10.817 9.42285C10.6881 9.4668 10.5797 9.53271 10.4918 9.62061C10.4068 9.7085 10.3424 9.81543 10.2984 9.94141C10.2574 10.0674 10.234 10.2109 10.2281 10.3721L9.97324 10.293C9.97324 9.98535 10.004 9.70264 10.0655 9.44482C10.1271 9.18408 10.2164 8.95703 10.3336 8.76367C10.4537 8.57031 10.6002 8.4209 10.773 8.31543C10.9459 8.20996 11.1437 8.15723 11.3663 8.15723C11.4366 8.15723 11.5084 8.16309 11.5816 8.1748C11.6549 8.18359 11.7149 8.19678 11.7618 8.21436Z" fill="white"/>
<path d="M14.4209 12.7846L15.7319 9.18264L14.021 8.55993L12.71 12.1619C12.692 12.2116 12.6877 12.2651 12.6977 12.317L13.0717 13.8299L14.3304 12.9115C14.3715 12.8782 14.4028 12.8343 14.4209 12.7846V12.7846ZM16.1551 8.01983C16.208 7.87447 16.201 7.71406 16.1356 7.57388C16.0703 7.43369 15.9519 7.3252 15.8066 7.27228L15.1918 7.04853C15.0465 6.99565 14.886 7.00267 14.7459 7.06804C14.6057 7.13341 14.4972 7.25178 14.4443 7.39712L14.2205 8.01186L15.9314 8.63457L16.1551 8.01983Z" fill="white"/>
<path d="M10 19.5C4.7533 19.5 0.5 15.2467 0.5 10H-0.5C-0.5 15.799 4.20101 20.5 10 20.5V19.5ZM19.5 10C19.5 15.2467 15.2467 19.5 10 19.5V20.5C15.799 20.5 20.5 15.799 20.5 10H19.5ZM10 0.5C15.2467 0.5 19.5 4.7533 19.5 10H20.5C20.5 4.20101 15.799 -0.5 10 -0.5V0.5ZM10 -0.5C4.20101 -0.5 -0.5 4.20101 -0.5 10H0.5C0.5 4.7533 4.7533 0.5 10 0.5V-0.5Z" fill="url(#paint1_linear_356_2452)"/>
<defs>
<radialGradient id="paint0_radial_356_2452" cx="0" cy="0" r="1" gradientUnits="userSpaceOnUse" gradientTransform="translate(8 7) rotate(90) scale(6)">
<stop stop-color="#FF1E1E"/>
<stop offset="1" stop-color="#FF3030" stop-opacity="0"/>
</radialGradient>
<linearGradient id="paint1_linear_356_2452" x1="4.5" y1="1" x2="19.5" y2="20.5" gradientUnits="userSpaceOnUse">
<stop stop-color="#FF1E1E"/>
<stop offset="0.10625" stop-color="#A8A8A8" stop-opacity="0.2"/>
<stop offset="1" stop-color="#A8A8A8" stop-opacity="0.2"/>
</linearGradient>
</defs>
</svg>
