<svg width="58" height="57" viewBox="0 0 58 57" fill="none" xmlns="http://www.w3.org/2000/svg">
<path d="M52.0187 30.2712C52.1515 30.2735 52.269 30.2547 52.3713 30.2148C52.4761 30.1776 52.5711 30.1089 52.6562 30.0088C52.7412 29.9114 52.8231 29.7748 52.9017 29.599C52.9803 29.4259 53.0609 29.2059 53.1438 28.9391C53.232 28.6594 53.3289 28.4071 53.4344 28.1824C53.5425 27.9577 53.6644 27.7658 53.8 27.6066C53.9356 27.4475 54.0901 27.3265 54.2635 27.2436C54.4368 27.1607 54.6342 27.1212 54.8555 27.1251C55.0768 27.129 55.2804 27.1781 55.4663 27.2725C55.6522 27.3669 55.8126 27.5 55.9477 27.6716C56.0852 27.846 56.191 28.0523 56.265 28.2906C56.3389 28.5289 56.3734 28.7939 56.3683 29.0855C56.3608 29.5125 56.2724 29.873 56.1032 30.1669C55.9365 30.4635 55.7203 30.6876 55.4546 30.8393C55.1915 30.9909 54.9115 31.0642 54.6146 31.059L54.6278 30.3091C54.8413 30.3128 55.0309 30.2706 55.1965 30.1823C55.3647 30.0941 55.4974 29.9584 55.5943 29.7751C55.6939 29.592 55.7462 29.3585 55.7512 29.0747C55.7559 28.8065 55.7194 28.5844 55.6417 28.4086C55.5641 28.2327 55.457 28.1006 55.3205 28.0123C55.184 27.9265 55.0272 27.8821 54.8501 27.879C54.7303 27.8769 54.6205 27.8997 54.5207 27.9475C54.4235 27.9978 54.3323 28.0757 54.2471 28.181C54.1618 28.2889 54.0826 28.4255 54.0094 28.5909C53.9361 28.7589 53.8649 28.9596 53.7957 29.1928C53.6989 29.514 53.5924 29.7908 53.4764 30.0232C53.3603 30.2556 53.2306 30.4461 53.0874 30.5946C52.9467 30.7458 52.7872 30.8563 52.6089 30.9261C52.4331 30.9986 52.2345 31.0329 52.0132 31.029C51.7815 31.0249 51.5727 30.9744 51.3869 30.8774C51.201 30.7803 51.0433 30.6434 50.9135 30.4667C50.7838 30.2899 50.6846 30.0785 50.616 29.8324C50.5499 29.5891 50.5195 29.3176 50.5248 29.0182C50.5294 28.7552 50.5704 28.4968 50.6478 28.2429C50.7251 27.9916 50.8385 27.7631 50.988 27.5574C51.1374 27.3542 51.3199 27.192 51.5356 27.0708C51.7539 26.9522 52.0049 26.8954 52.2887 26.9004L52.2756 27.6503C52.0803 27.6468 51.9117 27.6816 51.7698 27.7547C51.6305 27.8278 51.5141 27.9286 51.4207 28.0572C51.3272 28.1884 51.2569 28.3369 51.2097 28.5028C51.1651 28.6713 51.1412 28.8467 51.138 29.029C51.1334 29.2919 51.1659 29.5152 51.2356 29.6987C51.3053 29.8823 51.4071 30.0221 51.5408 30.1182C51.6745 30.2169 51.8338 30.2679 52.0187 30.2712Z" fill="white"/>
<path d="M51.0445 36.2751L50.8453 36.9982C50.5092 36.8651 50.2264 36.6805 49.997 36.4444C49.7676 36.2084 49.6131 35.9213 49.5333 35.5833C49.4561 35.246 49.478 34.8576 49.599 34.4183C49.6875 34.0969 49.8284 33.821 50.0215 33.5906C50.214 33.3627 50.4466 33.185 50.7194 33.0576C50.9947 32.9309 51.3022 32.8589 51.6419 32.8418C51.9834 32.8278 52.3462 32.8737 52.7303 32.9795L53.2764 33.13C53.6605 33.2358 53.9944 33.3818 54.2781 33.568C54.5635 33.7574 54.7917 33.9783 54.9626 34.2307C55.1328 34.4855 55.2408 34.7651 55.2866 35.0695C55.3324 35.3738 55.3086 35.6955 55.2152 36.0344C55.1011 36.4487 54.9268 36.7775 54.6923 37.0208C54.4578 37.2641 54.1806 37.4268 53.8609 37.5089C53.543 37.5942 53.1981 37.6059 52.8262 37.5439L53.0254 36.8209C53.2911 36.8563 53.5288 36.8515 53.7383 36.8066C53.9504 36.7624 54.1309 36.6662 54.2797 36.5182C54.4286 36.3701 54.5421 36.1542 54.6202 35.8705C54.6873 35.627 54.7 35.3995 54.6583 35.1881C54.6159 34.9793 54.5266 34.7885 54.3905 34.616C54.2536 34.4459 54.0746 34.2967 53.8534 34.1682C53.6322 34.0397 53.376 33.9354 53.0847 33.8551L52.5311 33.7026C52.2625 33.6286 52.0026 33.5867 51.7514 33.5769C51.4994 33.5696 51.2685 33.5992 51.0584 33.6656C50.8483 33.732 50.6673 33.8401 50.5152 33.99C50.3657 34.1406 50.2574 34.3376 50.1903 34.5812C50.1052 34.89 50.0864 35.1495 50.1338 35.3598C50.1812 35.57 50.2838 35.7468 50.4414 35.8902C50.5984 36.0361 50.7994 36.1644 51.0445 36.2751Z" fill="white"/>
<path d="M53.4207 40.3191L52.4839 41.9524C52.2714 42.3228 52.0355 42.6033 51.7761 42.7938C51.5155 42.9865 51.2363 43.086 50.9384 43.0923C50.6416 43.1022 50.3328 43.0151 50.012 42.8311C49.7861 42.7016 49.606 42.5367 49.4716 42.3365C49.3382 42.1399 49.2552 41.9182 49.2227 41.6714C49.1911 41.4281 49.2117 41.1697 49.2845 40.8963L49.3183 40.6725L50.1987 39.1375L50.7346 39.4359L50.0699 40.5947C49.9351 40.8296 49.8637 41.0484 49.8556 41.2509C49.8498 41.4547 49.8943 41.6363 49.989 41.7957C50.0837 41.9551 50.2157 42.0834 50.3851 42.1806C50.5749 42.2894 50.7623 42.3474 50.9474 42.3544C51.1325 42.3615 51.3094 42.3069 51.4782 42.1906C51.6479 42.0778 51.8047 41.896 51.9486 41.6453L52.5102 40.666L48.1121 38.1433L48.4872 37.4893L53.4207 40.3191ZM46.8332 40.3729L49.7576 40.4561L49.3703 41.1391L46.4735 41.0942L46.4329 41.0709L46.8332 40.3729Z" fill="white"/>
<path d="M44.6044 47.1637L44.3515 46.9084C44.0509 46.605 43.8195 46.2955 43.6571 45.9798C43.4947 45.6642 43.4013 45.3516 43.377 45.0421C43.3527 44.7326 43.3965 44.4345 43.5083 44.1478C43.6183 43.8629 43.7963 43.5986 44.0424 43.3548C44.2811 43.1184 44.5443 42.9456 44.8321 42.8365C45.118 42.7292 45.4174 42.6874 45.7304 42.7109C46.0414 42.7363 46.3559 42.8299 46.6737 42.9916C46.9915 43.1533 47.3007 43.3859 47.6012 43.6893L47.8542 43.9446C48.1547 44.248 48.3843 44.5576 48.5431 44.8732C48.7018 45.1925 48.7923 45.5079 48.8148 45.8192C48.8391 46.1323 48.7962 46.4314 48.6863 46.7163C48.5744 47.003 48.3992 47.2646 48.1605 47.501C47.9144 47.7447 47.6484 47.9203 47.3625 48.0275C47.0747 48.1367 46.7753 48.1767 46.4642 48.1476C46.1531 48.1222 45.8405 48.0268 45.5264 47.8614C45.2123 47.6997 44.905 47.4672 44.6044 47.1637ZM44.8816 46.3834L45.14 46.6442C45.3782 46.8847 45.614 47.0728 45.8472 47.2083C46.0786 47.3457 46.3037 47.4305 46.5227 47.4628C46.7417 47.4952 46.9517 47.4759 47.1528 47.4051C47.352 47.336 47.5376 47.2163 47.7096 47.0459C47.8762 46.8809 47.9949 46.6992 48.0658 46.5006C48.1349 46.3039 48.1552 46.095 48.1268 45.8739C48.0965 45.6546 48.0156 45.4268 47.8842 45.1905C47.7527 44.9542 47.5678 44.7158 47.3296 44.4752L47.0712 44.2144C46.8311 43.972 46.5926 43.7831 46.3557 43.6475C46.1206 43.5138 45.8918 43.4308 45.6691 43.3984C45.4464 43.3697 45.2364 43.389 45.0391 43.4562C44.8399 43.5252 44.657 43.6422 44.4905 43.8072C44.3166 43.9794 44.1942 44.1648 44.1232 44.3634C44.0523 44.5619 44.0329 44.7699 44.065 44.9874C44.0971 45.2085 44.1808 45.4354 44.3159 45.668C44.4529 45.9026 44.6415 46.141 44.8816 46.3834Z" fill="white"/>
<path d="M38.1395 48.2544L37.8328 47.7233L40.2954 46.3012L40.6021 46.8322L38.1395 48.2544ZM43.0112 51.3006L40.1668 46.3754L40.8197 45.9984L43.664 50.9235L43.0112 51.3006Z" fill="white"/>
<path d="M33.9632 49.5633L33.7699 48.9813L36.4686 48.0848L36.6619 48.6668L33.9632 49.5633ZM38.1207 53.5291L36.3277 48.1316L37.0432 47.8939L38.8362 53.2914L38.1207 53.5291Z" fill="white"/>
<path d="M15.6905 46.7566C15.6198 46.869 15.575 46.9792 15.5562 47.0874C15.5337 47.1964 15.5433 47.3132 15.5849 47.4378C15.6242 47.561 15.6987 47.7018 15.8084 47.86C15.9158 48.0169 16.0622 48.1998 16.2476 48.4088C16.4412 48.6291 16.6069 48.8426 16.7445 49.0493C16.8808 49.2581 16.9818 49.4617 17.0477 49.6601C17.1136 49.8586 17.1372 50.0534 17.1184 50.2446C17.0995 50.4359 17.0312 50.6251 16.9132 50.8125C16.7953 50.9998 16.6479 51.1485 16.4709 51.2587C16.2938 51.3688 16.0969 51.4372 15.8802 51.4638C15.6598 51.4913 15.4285 51.475 15.1863 51.4148C14.9442 51.3547 14.6997 51.247 14.4528 51.0916C14.0914 50.8641 13.8287 50.6019 13.6649 50.3049C13.4974 50.0087 13.4176 49.7077 13.4255 49.4019C13.432 49.0982 13.5143 48.8208 13.6724 48.5696L14.3072 48.9691C14.1934 49.1498 14.1314 49.3339 14.1212 49.5213C14.1095 49.7109 14.157 49.8946 14.2635 50.0724C14.3687 50.2525 14.5414 50.4181 14.7816 50.5693C15.0086 50.7122 15.2174 50.7959 15.4081 50.8205C15.5988 50.8452 15.7672 50.8219 15.9135 50.7509C16.0575 50.6785 16.1767 50.5674 16.271 50.4175C16.3349 50.3161 16.3722 50.2104 16.383 50.1003C16.3903 49.991 16.3709 49.8726 16.3249 49.7452C16.2768 49.6164 16.2009 49.4779 16.0973 49.3296C15.9915 49.1799 15.8567 49.0151 15.6931 48.8352C15.4683 48.586 15.2866 48.3516 15.1479 48.132C15.0092 47.9124 14.9134 47.7029 14.8605 47.5034C14.804 47.3047 14.792 47.1111 14.8246 46.9223C14.8537 46.7344 14.9271 46.5468 15.045 46.3595C15.1685 46.1634 15.3198 46.0109 15.4991 45.9022C15.6783 45.7934 15.8771 45.7293 16.0955 45.7099C16.3139 45.6904 16.5461 45.715 16.7921 45.7837C17.0346 45.8532 17.2825 45.9677 17.536 46.1272C17.7586 46.2674 17.9584 46.4362 18.1356 46.6339C18.3105 46.8302 18.4473 47.0455 18.5459 47.2799C18.6424 47.5129 18.6866 47.7531 18.6786 48.0004C18.6671 48.2485 18.5857 48.4927 18.4345 48.7329L17.7998 48.3334C17.9038 48.1681 17.9613 48.0058 17.9723 47.8466C17.9819 47.6895 17.9559 47.5378 17.8942 47.3913C17.8304 47.2434 17.7397 47.1063 17.6223 46.9801C17.5012 46.8546 17.3635 46.7434 17.2093 46.6463C16.9867 46.5062 16.7788 46.4184 16.5857 46.383C16.3926 46.3476 16.2203 46.3623 16.0688 46.4269C15.9151 46.4902 15.789 46.6001 15.6905 46.7566Z" fill="white"/>
<path d="M11.0586 42.8145L10.5432 42.2697C10.8311 42.0511 11.1354 41.9047 11.4561 41.8307C11.7769 41.7567 12.1025 41.7731 12.4329 41.8799C12.7615 41.9884 13.0824 42.2083 13.3956 42.5393C13.6247 42.7814 13.7878 43.0448 13.8849 43.3293C13.9803 43.6119 14.0118 43.903 13.9796 44.2023C13.9455 44.5035 13.8478 44.8038 13.6866 45.1033C13.5217 45.4027 13.2946 45.6893 13.0052 45.9631L12.5937 46.3524C12.3043 46.6262 12.0065 46.8363 11.7004 46.9826C11.3905 47.1287 11.0834 47.2096 10.779 47.2251C10.4729 47.2387 10.1777 47.1863 9.89362 47.0679C9.60953 46.9495 9.34667 46.7627 9.10506 46.5073C8.80974 46.1952 8.61871 45.8758 8.53197 45.5492C8.44522 45.2226 8.44951 44.9012 8.54484 44.5852C8.63648 44.269 8.80509 43.9679 9.05064 43.6818L9.56609 44.2266C9.3982 44.4356 9.27921 44.6414 9.20913 44.844C9.13716 45.0483 9.12598 45.2525 9.17559 45.4565C9.22521 45.6605 9.35114 45.8694 9.55338 46.0831C9.72699 46.2666 9.91501 46.3952 10.1174 46.469C10.3181 46.5409 10.5275 46.5632 10.7456 46.5361C10.9619 46.5071 11.1823 46.4312 11.4068 46.3085C11.6312 46.1858 11.8532 46.0206 12.0726 45.813L12.4897 45.4183C12.6921 45.2268 12.8626 45.0262 13.001 44.8163C13.1376 44.6046 13.232 44.3916 13.2839 44.1775C13.3359 43.9635 13.3372 43.7526 13.2876 43.5449C13.2362 43.339 13.1237 43.1443 12.9501 42.9608C12.73 42.7281 12.5177 42.5776 12.3133 42.5093C12.1088 42.441 11.9045 42.4372 11.7002 42.4979C11.4941 42.5567 11.2802 42.6622 11.0586 42.8145Z" fill="white"/>
<path d="M6.36837 42.7534L5.45617 41.1063C5.24925 40.7327 5.13146 40.3857 5.10279 40.0651C5.07287 39.7423 5.13231 39.4519 5.28113 39.1939C5.4264 38.9348 5.66079 38.7157 5.98428 38.5365C6.21209 38.4104 6.4464 38.3416 6.68722 38.3303C6.92449 38.318 7.15714 38.3618 7.38516 38.4617C7.60964 38.5607 7.82001 38.7121 8.01627 38.916L8.19023 39.0607L9.04755 40.6087L8.51484 40.9127L7.86759 39.744C7.73637 39.5071 7.58623 39.3327 7.41716 39.221C7.24582 39.1105 7.06744 39.0545 6.88204 39.0529C6.69664 39.0514 6.51851 39.098 6.34765 39.1926C6.15629 39.2986 6.00966 39.4289 5.90778 39.5836C5.80589 39.7383 5.76101 39.9179 5.77313 40.1226C5.78172 40.3262 5.85603 40.5544 5.99608 40.8073L6.54303 41.7949L10.9785 39.3384L11.3438 39.9979L6.36837 42.7534ZM9.73323 37.0899L8.14785 39.5486L7.76404 38.8636L9.30236 36.4086L9.34337 36.3859L9.73323 37.0899Z" fill="white"/>
<path d="M5.07729 31.667L5.42667 31.5829C5.84187 31.4828 6.22654 31.4451 6.58067 31.4696C6.9348 31.4941 7.25055 31.576 7.5279 31.7155C7.80525 31.8549 8.03763 32.0467 8.22503 32.2909C8.41181 32.5325 8.54577 32.8216 8.62689 33.1584C8.70558 33.485 8.7171 33.7996 8.66145 34.1023C8.60519 34.4025 8.48596 34.6803 8.30376 34.9358C8.12095 35.1888 7.8781 35.4094 7.5752 35.5975C7.2723 35.7857 6.91325 35.9298 6.49805 36.0298L6.14867 36.114C5.73347 36.214 5.34976 36.2502 4.99755 36.2226C4.6422 36.193 4.32554 36.1072 4.04758 35.9653C3.76708 35.8239 3.53344 35.6324 3.34665 35.3908C3.15925 35.1467 3.02621 34.8613 2.94753 34.5347C2.86641 34.198 2.85397 33.8795 2.91023 33.5794C2.96588 33.2767 3.08668 32.9998 3.27263 32.7487C3.45544 32.4957 3.6989 32.2777 4.00302 32.0946C4.304 31.9096 4.66208 31.7671 5.07729 31.667ZM5.60142 32.3082L5.24444 32.3942C4.91532 32.4735 4.63241 32.5778 4.3957 32.7072C4.15839 32.834 3.96921 32.9827 3.82816 33.1533C3.68711 33.3239 3.59484 33.5135 3.55137 33.7222C3.50729 33.9284 3.51361 34.1492 3.57033 34.3846C3.62523 34.6125 3.71925 34.8082 3.85238 34.9716C3.98491 35.1326 4.15311 35.2581 4.35699 35.3483C4.56025 35.4359 4.79701 35.4847 5.06726 35.4946C5.33751 35.5045 5.6372 35.4698 5.96632 35.3905L6.3233 35.3045C6.65495 35.2246 6.9401 35.1184 7.17872 34.9859C7.41481 34.854 7.60435 34.7012 7.74732 34.5275C7.88715 34.3518 7.97941 34.1622 8.0241 33.9585C8.06819 33.7524 8.06278 33.5354 8.00789 33.3075C7.95055 33.0695 7.85531 32.8688 7.72218 32.7053C7.58904 32.5419 7.42114 32.4176 7.21849 32.3325C7.01269 32.2454 6.77528 32.1995 6.50625 32.1947C6.23468 32.1904 5.93307 32.2283 5.60142 32.3082Z" fill="white"/>
<path d="M7.4917 25.5712L8.10486 25.5838L8.04648 28.427L7.43333 28.4144L7.4917 25.5712ZM2.36322 28.1618L8.04953 28.2786L8.03405 29.0323L2.34775 28.9156L2.36322 28.1618Z" fill="white"/>
<path d="M8.53425 21.3209L9.13227 21.4568L8.50191 24.2298L7.90389 24.0939L8.53425 21.3209ZM2.98881 22.8243L8.53482 24.0851L8.3677 24.8202L2.82169 23.5595L2.98881 22.8243Z" fill="white"/>
<path d="M24.2892 6.8973C24.2495 6.77057 24.1945 6.66499 24.1244 6.58054C24.0559 6.49284 23.9608 6.42442 23.8389 6.37529C23.7196 6.32539 23.5641 6.2909 23.3726 6.27182C23.1835 6.25197 22.9493 6.2449 22.67 6.25061C22.3767 6.25525 22.1067 6.24301 21.8601 6.21389C21.6128 6.18228 21.3922 6.12727 21.1984 6.04885C21.0046 5.97044 20.841 5.86208 20.7076 5.7238C20.5742 5.58551 20.4743 5.41076 20.4081 5.19955C20.3419 4.98833 20.3242 4.77964 20.355 4.57345C20.3859 4.36727 20.4615 4.17301 20.5817 3.99066C20.7036 3.80505 20.8659 3.63952 21.0687 3.49407C21.2714 3.34862 21.512 3.23225 21.7903 3.14498C22.1978 3.01719 22.5677 2.98716 22.9001 3.05488C23.2341 3.11933 23.5151 3.25367 23.7429 3.45789C23.9699 3.65962 24.1278 3.90212 24.2166 4.1854L23.501 4.40981C23.4371 4.20605 23.3371 4.03953 23.2011 3.91026C23.0642 3.7785 22.8936 3.69555 22.6891 3.66142C22.4838 3.6248 22.2458 3.64896 21.9749 3.7339C21.719 3.81415 21.5198 3.9189 21.3775 4.04814C21.2352 4.17737 21.1437 4.3207 21.103 4.47811C21.0648 4.63474 21.0721 4.79754 21.1251 4.96651C21.161 5.08082 21.2173 5.17778 21.2941 5.2574C21.3726 5.33375 21.4753 5.39572 21.6021 5.44329C21.7314 5.49007 21.8861 5.52208 22.0662 5.5393C22.2487 5.55575 22.4616 5.55996 22.7047 5.55196C23.0401 5.54231 23.3364 5.55584 23.5935 5.59256C23.8506 5.62928 24.0723 5.69214 24.2585 5.78113C24.4464 5.86685 24.6016 5.98329 24.7242 6.13044C24.8485 6.27433 24.9437 6.45188 25.01 6.6631C25.0793 6.88425 25.0973 7.09831 25.064 7.30527C25.0306 7.51223 24.9505 7.70518 24.8238 7.88411C24.6971 8.06305 24.5278 8.22392 24.316 8.36674C24.106 8.5063 23.8581 8.62088 23.5723 8.71049C23.3214 8.78919 23.0632 8.83193 22.7979 8.83872C22.535 8.84472 22.2824 8.80932 22.04 8.7325C21.8 8.65491 21.5885 8.53293 21.4053 8.36657C21.2238 8.19695 21.0906 7.97672 21.0057 7.70587L21.7213 7.48146C21.7798 7.66782 21.8661 7.8168 21.9802 7.92838C22.0936 8.03749 22.226 8.11604 22.3775 8.16405C22.5315 8.21128 22.6947 8.23108 22.8669 8.22346C23.0409 8.21257 23.2149 8.17985 23.3888 8.12531C23.6398 8.04661 23.8413 7.9452 23.9935 7.82108C24.1456 7.69696 24.2461 7.55627 24.2951 7.399C24.3465 7.24096 24.3445 7.07372 24.2892 6.8973Z" fill="white"/>
<path d="M30.2935 5.92508L31.0424 5.88568C31.0223 6.24661 30.9365 6.57318 30.785 6.8654C30.6334 7.15762 30.4099 7.39495 30.1144 7.5774C29.8188 7.75724 29.4434 7.85913 28.9883 7.88308C28.6554 7.90059 28.3492 7.85412 28.0695 7.74366C27.7925 7.63306 27.5505 7.46847 27.3434 7.24988C27.1362 7.02869 26.9708 6.75966 26.8472 6.4428C26.726 6.12321 26.655 5.76446 26.6341 5.36658L26.6043 4.80095C26.5834 4.40306 26.6164 4.04015 26.7035 3.71221C26.793 3.38152 26.9305 3.09526 27.116 2.85341C27.304 2.61142 27.5352 2.42063 27.8095 2.28102C28.0838 2.14142 28.3965 2.06238 28.7476 2.04391C29.1767 2.02134 29.5437 2.08287 29.8486 2.2285C30.1536 2.37414 30.3955 2.58568 30.5744 2.86312C30.7557 3.13783 30.8758 3.4614 30.9345 3.83383L30.1855 3.87323C30.1352 3.60989 30.0556 3.3859 29.9468 3.20125C29.8378 3.01401 29.6896 2.87317 29.5021 2.77872C29.3146 2.68428 29.0739 2.64479 28.78 2.66025C28.5277 2.67352 28.3079 2.73333 28.1205 2.83967C27.9358 2.94588 27.783 3.09083 27.6623 3.27451C27.5442 3.45805 27.4591 3.67506 27.4071 3.92553C27.3551 4.17601 27.337 4.45208 27.3529 4.75374L27.383 5.32717C27.3977 5.60543 27.44 5.86528 27.5101 6.10673C27.5828 6.34803 27.6838 6.55786 27.8131 6.73621C27.9425 6.91455 28.1023 7.05218 28.2925 7.14909C28.4826 7.2434 28.7038 7.28392 28.9561 7.27064C29.2759 7.25382 29.5281 7.1897 29.7126 7.07828C29.8971 6.96687 30.0325 6.81372 30.1187 6.61881C30.2076 6.42377 30.2658 6.19253 30.2935 5.92508Z" fill="white"/>
<path d="M33.3803 2.39314L35.2258 2.76605C35.6444 2.85064 35.9851 2.98589 36.2477 3.1718C36.5129 3.35823 36.6956 3.59173 36.7956 3.87232C36.8987 4.15086 36.9137 4.47137 36.8404 4.83384C36.7889 5.08909 36.6893 5.31208 36.5419 5.5028C36.3975 5.69148 36.2133 5.84024 35.9894 5.94909C35.7686 6.05591 35.5169 6.11797 35.2344 6.13529L35.0114 6.17392L33.277 5.82344L33.3908 5.22076L34.7002 5.48536C34.9657 5.539 35.1958 5.53767 35.3905 5.48136C35.5857 5.42251 35.744 5.32298 35.8653 5.18277C35.9866 5.04256 36.0666 4.87673 36.1053 4.68529C36.1486 4.47087 36.1444 4.27475 36.0927 4.09692C36.0409 3.91908 35.9332 3.76846 35.7695 3.64506C35.6089 3.51961 35.3869 3.42826 35.1036 3.37101L33.997 3.14742L32.9928 8.11729L32.2538 7.96797L33.3803 2.39314ZM35.5122 8.62636L34.6674 5.82543L35.4378 5.97711L36.3102 8.73979L36.3009 8.78574L35.5122 8.62636Z" fill="white"/>
<path d="M42.659 8.59577L42.4967 8.91638C42.3038 9.2974 42.0832 9.6148 41.835 9.86859C41.5868 10.1224 41.3197 10.3097 41.0338 10.4305C40.7478 10.5514 40.4512 10.604 40.1438 10.5885C39.8387 10.5741 39.5317 10.4887 39.2227 10.3322C38.923 10.1804 38.6759 9.98528 38.4815 9.7467C38.2893 9.5093 38.155 9.23842 38.0786 8.93407C38.0044 8.63088 37.9938 8.30298 38.0469 7.95037C38.0999 7.59776 38.2229 7.23094 38.4159 6.84992L38.5782 6.52931C38.7711 6.14829 38.9923 5.83264 39.2416 5.58235C39.4945 5.33091 39.765 5.14536 40.0533 5.02571C40.3428 4.90373 40.64 4.84993 40.9451 4.86429C41.2525 4.87983 41.556 4.96348 41.8557 5.11525C42.1647 5.27172 42.4153 5.46865 42.6074 5.70605C42.8018 5.94462 42.9344 6.21608 43.005 6.5204C43.0792 6.82359 43.0874 7.15031 43.0297 7.50057C42.9755 7.84968 42.852 8.21475 42.659 8.59577ZM41.8311 8.57932L41.997 8.25174C42.1499 7.94972 42.2538 7.66666 42.3087 7.40256C42.366 7.13965 42.3754 6.8992 42.3369 6.68122C42.2984 6.46323 42.2138 6.27006 42.083 6.10168C41.9546 5.93449 41.7824 5.79618 41.5663 5.68677C41.3572 5.58089 41.1473 5.52567 40.9365 5.5211C40.728 5.51771 40.5234 5.56442 40.3226 5.66122C40.1241 5.75921 39.9335 5.90789 39.7508 6.10728C39.5681 6.30667 39.4003 6.55737 39.2474 6.8594L39.0815 7.18698C38.9274 7.49133 38.8234 7.7773 38.7696 8.04489C38.717 8.31016 38.7106 8.55354 38.7502 8.77502C38.7933 8.99535 38.878 9.18853 39.0041 9.35455C39.1325 9.52175 39.3012 9.65829 39.5103 9.76417C39.7287 9.87476 39.9433 9.93233 40.1541 9.9369C40.3649 9.94147 40.5683 9.89417 40.7645 9.79501C40.9641 9.69471 41.153 9.54368 41.3311 9.34194C41.5103 9.13788 41.677 8.88367 41.8311 8.57932Z" fill="white"/>
<path d="M45.7363 14.3853L45.3293 14.8441L43.2021 12.9569L43.6091 12.4981L45.7363 14.3853ZM47.0876 8.80086L43.3131 13.0554L42.7492 12.555L46.5237 8.30053L47.0876 8.80086Z" fill="white"/>
<path d="M48.2971 17.9342L47.8059 18.3014L46.1028 16.0241L46.594 15.6568L48.2971 17.9342ZM50.7465 12.7368L46.1917 16.143L45.7402 15.5392L50.295 12.133L50.7465 12.7368Z" fill="white"/>
</svg>
