<svg width="70" height="70" viewBox="0 0 70 70" fill="none" xmlns="http://www.w3.org/2000/svg">
<ellipse cx="24" cy="22.5" rx="14" ry="12.5" fill="url(#paint0_radial_499_775)"/>
<path d="M35 25.7778V18H20V53H50V25.7778H35ZM26 49.1111H23V45.2222H26V49.1111ZM26 41.3333H23V37.4444H26V41.3333ZM26 33.5556H23V29.6667H26V33.5556ZM26 25.7778H23V21.8889H26V25.7778ZM32 49.1111H29V45.2222H32V49.1111ZM32 41.3333H29V37.4444H32V41.3333ZM32 33.5556H29V29.6667H32V33.5556ZM32 25.7778H29V21.8889H32V25.7778ZM47 49.1111H35V45.2222H38V41.3333H35V37.4444H38V33.5556H35V29.6667H47V49.1111ZM44 33.5556H41V37.4444H44V33.5556ZM44 41.3333H41V45.2222H44V41.3333Z" fill="white"/>
<rect x="0.25" y="0.25" width="69.5" height="69.5" rx="34.75" stroke="url(#paint1_linear_499_775)" stroke-width="0.5"/>
<defs>
<radialGradient id="paint0_radial_499_775" cx="0" cy="0" r="1" gradientUnits="userSpaceOnUse" gradientTransform="translate(24 22.5) rotate(90) scale(12.5 14)">
<stop stop-color="#FF1E1E"/>
<stop offset="1" stop-color="#FF3030" stop-opacity="0"/>
</radialGradient>
<linearGradient id="paint1_linear_499_775" x1="15.75" y1="3.5" x2="68.25" y2="71.75" gradientUnits="userSpaceOnUse">
<stop stop-color="#FF1E1E"/>
<stop offset="0.10625" stop-color="#A8A8A8" stop-opacity="0.2"/>
<stop offset="1" stop-color="#A8A8A8" stop-opacity="0.2"/>
</linearGradient>
</defs>
</svg>
