<svg width="70" height="70" viewBox="0 0 70 70" fill="none" xmlns="http://www.w3.org/2000/svg">
<ellipse cx="24" cy="22.5" rx="14" ry="12.5" fill="url(#paint0_radial_356_2457)"/>
<path d="M45.6968 35C45.6968 34.79 45.6968 34.5625 45.6797 34.3525L49 31.78L44.7213 24.2025L40.8875 25.8475C40.5452 25.62 40.1687 25.3925 39.7922 25.2L39.2787 21H30.7213L30.2078 25.2175C29.8313 25.41 29.4719 25.6375 29.1125 25.865L25.2787 24.2025L21 31.78L24.3203 34.3525C24.3032 34.5625 24.3032 34.79 24.3032 35C24.3032 35.21 24.3032 35.4375 24.3203 35.6475L21 38.22L25.2787 45.7975L29.1125 44.1525C29.4548 44.38 29.8313 44.6075 30.2078 44.8L30.7213 49H39.2787L39.7922 44.7825C40.1687 44.59 40.5281 44.38 40.8875 44.135L44.7213 45.78L49 38.2025L45.6797 35.63C45.6968 35.4375 45.6968 35.21 45.6968 35ZM43.2665 41.37L40.3056 40.0925C39.3472 41.1425 38.0807 41.9125 36.6601 42.245L36.2494 45.5H33.7506L33.357 42.245C31.9364 41.9125 30.6699 41.1425 29.7115 40.0925L26.7506 41.37L25.5012 39.1475L28.0513 37.17C27.846 36.4875 27.7433 35.77 27.7433 35.0175C27.7433 34.265 27.846 33.5475 28.0513 32.865L25.5012 30.8875L26.7506 28.665L29.7115 29.9425C30.6699 28.8925 31.9364 28.1225 33.357 27.79L33.7506 24.5H36.2665L36.6601 27.755C38.0807 28.0875 39.3472 28.8575 40.3056 29.9075L43.2665 28.63L44.5159 30.8525L41.9658 32.83C42.1711 33.5125 42.2738 34.23 42.2738 34.9825C42.2738 35.735 42.1711 36.4525 41.9658 37.135L44.5159 39.1125L43.2665 41.37Z" fill="white"/>
<path d="M35 35C36.3812 35 37.5 33.8812 37.5 32.5C37.5 31.1187 36.3812 30 35 30C33.6188 30 32.5 31.1187 32.5 32.5C32.5 33.8812 33.6188 35 35 35ZM35 36.25C33.3312 36.25 30 37.0875 30 38.75V40H40V38.75C40 37.0875 36.6687 36.25 35 36.25Z" fill="white"/>
<path d="M61.4642 60.0001C61.4642 60.8088 60.8086 61.4643 59.9999 61.4643C59.1912 61.4643 58.5356 60.8088 58.5356 60.0001C58.5356 59.1913 59.1912 58.5358 59.9999 58.5358C60.8086 58.5358 61.4642 59.1913 61.4642 60.0001Z" stroke="white" stroke-width="0.5"/>
<path d="M35 69.5C15.9462 69.5 0.5 54.0538 0.5 35H-0.5C-0.5 54.6061 15.3939 70.5 35 70.5V69.5ZM69.5 35C69.5 54.0538 54.0538 69.5 35 69.5V70.5C54.6061 70.5 70.5 54.6061 70.5 35H69.5ZM35 0.5C54.0538 0.5 69.5 15.9462 69.5 35H70.5C70.5 15.3939 54.6061 -0.5 35 -0.5V0.5ZM35 -0.5C15.3939 -0.5 -0.5 15.3939 -0.5 35H0.5C0.5 15.9462 15.9462 0.5 35 0.5V-0.5Z" fill="url(#paint1_linear_356_2457)"/>
<defs>
<radialGradient id="paint0_radial_356_2457" cx="0" cy="0" r="1" gradientUnits="userSpaceOnUse" gradientTransform="translate(24 22.5) rotate(90) scale(12.5 14)">
<stop stop-color="#FF1E1E"/>
<stop offset="1" stop-color="#FF3030" stop-opacity="0"/>
</radialGradient>
<linearGradient id="paint1_linear_356_2457" x1="15.75" y1="3.5" x2="68.25" y2="71.75" gradientUnits="userSpaceOnUse">
<stop stop-color="#FF1E1E"/>
<stop offset="0.10625" stop-color="#A8A8A8" stop-opacity="0.2"/>
<stop offset="1" stop-color="#A8A8A8" stop-opacity="0.2"/>
</linearGradient>
</defs>
</svg>
