<svg width="70" height="70" viewBox="0 0 70 70" fill="none" xmlns="http://www.w3.org/2000/svg">
<ellipse cx="24" cy="22.5" rx="14" ry="12.5" fill="url(#paint0_radial_356_2452)"/>
<path d="M25.152 39.5098H30.4078C30.3023 41.2324 29.8277 42.7617 28.984 44.0977C28.152 45.4336 26.9859 46.4766 25.4859 47.2266C23.9977 47.9766 22.2047 48.3516 20.107 48.3516C18.4664 48.3516 16.9957 48.0703 15.6949 47.5078C14.3941 46.9336 13.2809 46.1133 12.3551 45.0469C11.441 43.9805 10.7437 42.6914 10.2633 41.1797C9.78281 39.668 9.54258 37.9746 9.54258 36.0996V34.3242C9.54258 32.4492 9.78867 30.7559 10.2809 29.2441C10.7848 27.7207 11.4996 26.4258 12.4254 25.3594C13.3629 24.293 14.482 23.4727 15.7828 22.8984C17.0836 22.3242 18.5367 22.0371 20.1422 22.0371C22.275 22.0371 24.0738 22.4238 25.5387 23.1973C27.0152 23.9707 28.1578 25.0371 28.9664 26.3965C29.7867 27.7559 30.2789 29.3027 30.443 31.0371H25.1695C25.1109 30.0059 24.9059 29.1328 24.5543 28.418C24.2027 27.6914 23.6695 27.1465 22.9547 26.7832C22.2516 26.4082 21.3141 26.2207 20.1422 26.2207C19.2633 26.2207 18.4957 26.3848 17.8395 26.7129C17.1832 27.041 16.6324 27.5391 16.1871 28.207C15.7418 28.875 15.4078 29.7188 15.1852 30.7383C14.9742 31.7461 14.8687 32.9297 14.8687 34.2891V36.0996C14.8687 37.4238 14.9684 38.5898 15.1676 39.5977C15.3668 40.5938 15.6715 41.4375 16.0816 42.1289C16.5035 42.8086 17.0426 43.3242 17.6988 43.6758C18.3668 44.0156 19.1695 44.1855 20.107 44.1855C21.2086 44.1855 22.1168 44.0098 22.8316 43.6582C23.5465 43.3066 24.0914 42.7852 24.4664 42.0938C24.8531 41.4023 25.0816 40.541 25.152 39.5098ZM36.8168 33.1289V48H31.7543V28.9805H36.518L36.8168 33.1289ZM42.5473 28.8574L42.4594 33.5508C42.2133 33.5156 41.9145 33.4863 41.5629 33.4629C41.223 33.4277 40.9125 33.4102 40.6313 33.4102C39.9164 33.4102 39.2953 33.5039 38.768 33.6914C38.2523 33.8672 37.8188 34.1309 37.4672 34.4824C37.1273 34.834 36.8695 35.2617 36.6938 35.7656C36.5297 36.2695 36.4359 36.8438 36.4125 37.4883L35.393 37.1719C35.393 35.9414 35.516 34.8105 35.7621 33.7793C36.0082 32.7363 36.3656 31.8281 36.8344 31.0547C37.3148 30.2812 37.9008 29.6836 38.5922 29.2617C39.2836 28.8398 40.0746 28.6289 40.9652 28.6289C41.2465 28.6289 41.5336 28.6523 41.8266 28.6992C42.1195 28.7344 42.3598 28.7871 42.5473 28.8574Z" fill="white"/>
<path d="M50.4729 44.7462L55.0615 32.1392L49.0734 29.9598L44.4848 42.5668C44.4217 42.7405 44.4068 42.928 44.4417 43.1095L45.7507 48.4046L50.1561 45.1902C50.3 45.0735 50.4097 44.9199 50.4729 44.7462ZM56.5428 28.0694C56.7278 27.5607 56.7033 26.9992 56.4745 26.5086C56.2457 26.0179 55.8314 25.6382 55.3227 25.453L53.1711 24.6699C52.6624 24.4848 52.1009 24.5093 51.6103 24.7381C51.1196 24.9669 50.7399 25.3812 50.5547 25.8899L49.7716 28.0415L55.7596 30.221L56.5428 28.0694Z" fill="white"/>
<path d="M35 69.5C15.9462 69.5 0.5 54.0538 0.5 35H-0.5C-0.5 54.6061 15.3939 70.5 35 70.5V69.5ZM69.5 35C69.5 54.0538 54.0538 69.5 35 69.5V70.5C54.6061 70.5 70.5 54.6061 70.5 35H69.5ZM35 0.5C54.0538 0.5 69.5 15.9462 69.5 35H70.5C70.5 15.3939 54.6061 -0.5 35 -0.5V0.5ZM35 -0.5C15.3939 -0.5 -0.5 15.3939 -0.5 35H0.5C0.5 15.9462 15.9462 0.5 35 0.5V-0.5Z" fill="url(#paint1_linear_356_2452)"/>
<defs>
<radialGradient id="paint0_radial_356_2452" cx="0" cy="0" r="1" gradientUnits="userSpaceOnUse" gradientTransform="translate(24 22.5) rotate(90) scale(12.5 14)">
<stop stop-color="#FF1E1E"/>
<stop offset="1" stop-color="#FF3030" stop-opacity="0"/>
</radialGradient>
<linearGradient id="paint1_linear_356_2452" x1="15.75" y1="3.5" x2="68.25" y2="71.75" gradientUnits="userSpaceOnUse">
<stop stop-color="#FF1E1E"/>
<stop offset="0.10625" stop-color="#A8A8A8" stop-opacity="0.2"/>
<stop offset="1" stop-color="#A8A8A8" stop-opacity="0.2"/>
</linearGradient>
</defs>
</svg>
