<svg width="20" height="20" viewBox="0 0 20 20" fill="none" xmlns="http://www.w3.org/2000/svg">
<circle cx="8" cy="7" r="6" fill="url(#paint0_radial_356_2427)"/>
<path d="M8.64286 10.5H7.92857C7.81071 10.5 7.71429 10.4156 7.71429 10.3125V9.6875C7.71429 9.58438 7.81071 9.5 7.92857 9.5H8.64286C8.76071 9.5 8.85714 9.58438 8.85714 9.6875V10.3125C8.85714 10.4156 8.76071 10.5 8.64286 10.5ZM10.5714 10.3125V9.6875C10.5714 9.58438 10.475 9.5 10.3571 9.5H9.64286C9.525 9.5 9.42857 9.58438 9.42857 9.6875V10.3125C9.42857 10.4156 9.525 10.5 9.64286 10.5H10.3571C10.475 10.5 10.5714 10.4156 10.5714 10.3125ZM12.2857 10.3125V9.6875C12.2857 9.58438 12.1893 9.5 12.0714 9.5H11.3571C11.2393 9.5 11.1429 9.58438 11.1429 9.6875V10.3125C11.1429 10.4156 11.2393 10.5 11.3571 10.5H12.0714C12.1893 10.5 12.2857 10.4156 12.2857 10.3125ZM10.5714 11.8125V11.1875C10.5714 11.0844 10.475 11 10.3571 11H9.64286C9.525 11 9.42857 11.0844 9.42857 11.1875V11.8125C9.42857 11.9156 9.525 12 9.64286 12H10.3571C10.475 12 10.5714 11.9156 10.5714 11.8125ZM8.85714 11.8125V11.1875C8.85714 11.0844 8.76071 11 8.64286 11H7.92857C7.81071 11 7.71429 11.0844 7.71429 11.1875V11.8125C7.71429 11.9156 7.81071 12 7.92857 12H8.64286C8.76071 12 8.85714 11.9156 8.85714 11.8125ZM12.2857 11.8125V11.1875C12.2857 11.0844 12.1893 11 12.0714 11H11.3571C11.2393 11 11.1429 11.0844 11.1429 11.1875V11.8125C11.1429 11.9156 11.2393 12 11.3571 12H12.0714C12.1893 12 12.2857 11.9156 12.2857 11.8125ZM14 7.75V13.25C14 13.6641 13.6161 14 13.1429 14H6.85714C6.38393 14 6 13.6641 6 13.25V7.75C6 7.33594 6.38393 7 6.85714 7H7.71429V6.1875C7.71429 6.08438 7.81071 6 7.92857 6H8.64286C8.76071 6 8.85714 6.08438 8.85714 6.1875V7H11.1429V6.1875C11.1429 6.08438 11.2393 6 11.3571 6H12.0714C12.1893 6 12.2857 6.08438 12.2857 6.1875V7H13.1429C13.6161 7 14 7.33594 14 7.75ZM13.1429 13.1562V8.5H6.85714V13.1562C6.85714 13.2078 6.90536 13.25 6.96429 13.25H13.0357C13.0946 13.25 13.1429 13.2078 13.1429 13.1562Z" fill="white"/>
<path d="M10 19.5C4.7533 19.5 0.5 15.2467 0.5 10H-0.5C-0.5 15.799 4.20101 20.5 10 20.5V19.5ZM19.5 10C19.5 15.2467 15.2467 19.5 10 19.5V20.5C15.799 20.5 20.5 15.799 20.5 10H19.5ZM10 0.5C15.2467 0.5 19.5 4.7533 19.5 10H20.5C20.5 4.20101 15.799 -0.5 10 -0.5V0.5ZM10 -0.5C4.20101 -0.5 -0.5 4.20101 -0.5 10H0.5C0.5 4.7533 4.7533 0.5 10 0.5V-0.5Z" fill="url(#paint1_linear_356_2427)"/>
<defs>
<radialGradient id="paint0_radial_356_2427" cx="0" cy="0" r="1" gradientUnits="userSpaceOnUse" gradientTransform="translate(8 7) rotate(90) scale(6)">
<stop stop-color="#FF1E1E"/>
<stop offset="1" stop-color="#FF3030" stop-opacity="0"/>
</radialGradient>
<linearGradient id="paint1_linear_356_2427" x1="4.5" y1="1" x2="19.5" y2="20.5" gradientUnits="userSpaceOnUse">
<stop stop-color="#FF1E1E"/>
<stop offset="0.10625" stop-color="#A8A8A8" stop-opacity="0.2"/>
<stop offset="1" stop-color="#A8A8A8" stop-opacity="0.2"/>
</linearGradient>
</defs>
</svg>
