<svg width="70" height="70" viewBox="0 0 70 70" fill="none" xmlns="http://www.w3.org/2000/svg">
<ellipse cx="19" cy="16.5" rx="14" ry="12.5" fill="url(#paint0_radial_397_376)"/>
<path d="M42 45.5H24.5V24.5H42V26.25H45.5V19.25C45.5 17.325 43.925 15.75 42 15.75H24.5C22.575 15.75 21 17.325 21 19.25V50.75C21 52.675 22.575 54.25 24.5 54.25H42C43.925 54.25 45.5 52.675 45.5 50.75V43.75H42V45.5ZM24.5 19.25H42V21H24.5V19.25ZM42 50.75H24.5V49H42V50.75Z" fill="white"/>
<path opacity="0.3" d="M24.5 19.25H42V21H24.5V19.25ZM24.5 49H42V50.75H24.5V49Z" fill="white"/>
<path d="M49.8136 27.7436C49.8932 27.6003 49.9228 27.4309 49.8959 27.2719C49.869 27.113 49.7879 26.9772 49.6701 26.8941C49.5522 26.811 49.4072 26.7872 49.2663 26.8279C49.1254 26.8686 49 26.9705 48.9173 27.1115L47.9411 28.8199C47.8615 28.9631 47.8319 29.1325 47.8588 29.2915C47.8857 29.4505 47.9668 29.5862 48.0846 29.6693C48.2025 29.7524 48.3475 29.7762 48.4884 29.7355C48.6293 29.6948 48.7547 29.5929 48.8374 29.4519L49.8136 27.7436V27.7436ZM53.0011 28.5155C53.0706 28.6545 53.0872 28.8239 53.0471 28.9862C53.007 29.1486 52.9136 29.2908 52.7874 29.3815L50.5407 30.9939C50.478 31.0423 50.4084 31.0763 50.336 31.094C50.2636 31.1116 50.1899 31.1126 50.1193 31.0967C50.0488 31.0808 49.9828 31.0485 49.9253 31.0016C49.8678 30.9547 49.82 30.8943 49.7847 30.8238C49.7495 30.7534 49.7274 30.6744 49.72 30.5916C49.7125 30.5088 49.7198 30.4239 49.7413 30.342C49.7628 30.26 49.7982 30.1827 49.8454 30.1145C49.8925 30.0464 49.9504 29.989 50.0156 29.9455L52.2622 28.3331C52.3886 28.2426 52.5374 28.2109 52.6759 28.2451C52.8144 28.2793 52.9314 28.3766 53.0011 28.5155V28.5155ZM46.4841 28.2245C46.36 27.9544 46.1781 27.7281 45.9543 27.5653C45.7304 27.4025 45.4712 27.3081 45.1993 27.2903C44.9273 27.2724 44.6508 27.3316 44.3936 27.4629C44.1363 27.5941 43.9062 27.7933 43.7232 28.0432L37.1435 37.031C36.9585 37.2838 36.8442 37.592 36.8169 37.9109C36.7896 38.2299 36.8509 38.543 36.9918 38.8051L37.721 40.1621C37.8517 40.4051 38.045 40.5929 38.2765 40.7018C38.5079 40.8107 38.7674 40.836 39.0222 40.7744L40.1365 40.5051C40.2481 41.3632 40.6533 42.1107 41.2642 42.5856C41.8752 43.0604 42.6425 43.2241 43.3998 43.0413C44.157 42.8584 44.843 42.3437 45.3088 41.6089C45.7746 40.8741 45.9828 39.9784 45.8879 39.1163L48.5775 38.4661C48.844 38.4017 49.0981 38.2659 49.3183 38.0699C49.5386 37.8738 49.7187 37.6234 49.8437 37.3394C49.9686 37.0553 50.0348 36.746 50.0366 36.4371C50.0385 36.1283 49.976 35.8288 49.8543 35.5639L46.4839 28.2253L46.4841 28.2245ZM44.8094 39.3754C44.8574 39.9086 44.7216 40.4578 44.4305 40.907C44.1395 41.3562 43.7161 41.6703 43.2498 41.7829C42.7834 41.8955 42.3106 41.7978 41.9312 41.5105C41.5519 41.2232 41.2956 40.7687 41.2166 40.243L44.8094 39.3754ZM49.8477 32.9629C49.8878 32.8004 49.9813 32.6581 50.1077 32.5674C50.2341 32.4767 50.383 32.4449 50.5217 32.4791L51.9158 32.8232C52.0544 32.8574 52.1715 32.9548 52.2411 33.0939C52.3108 33.233 52.3274 33.4025 52.2873 33.565C52.2472 33.7275 52.1537 33.8697 52.0273 33.9604C51.9009 34.0512 51.752 34.0829 51.6133 34.0487L50.2192 33.7046C50.0806 33.6704 49.9636 33.573 49.8939 33.4339C49.8242 33.2948 49.8076 33.1254 49.8477 32.9629Z" fill="white"/>
<rect x="0.25" y="0.25" width="69.5" height="69.5" rx="34.75" stroke="url(#paint1_linear_397_376)" stroke-width="0.5"/>
<defs>
<radialGradient id="paint0_radial_397_376" cx="0" cy="0" r="1" gradientUnits="userSpaceOnUse" gradientTransform="translate(19 16.5) rotate(90) scale(12.5 14)">
<stop stop-color="#FF1E1E"/>
<stop offset="1" stop-color="#FF3030" stop-opacity="0"/>
</radialGradient>
<linearGradient id="paint1_linear_397_376" x1="15.75" y1="3.5" x2="68.25" y2="71.75" gradientUnits="userSpaceOnUse">
<stop stop-color="#FF1E1E"/>
<stop offset="0.10625" stop-color="#A8A8A8" stop-opacity="0.2"/>
<stop offset="1" stop-color="#A8A8A8" stop-opacity="0.2"/>
</linearGradient>
</defs>
</svg>
