<svg width="28" height="25" viewBox="0 0 28 25" fill="none" xmlns="http://www.w3.org/2000/svg">
<rect width="15" height="17" rx="2" transform="matrix(-0.942163 0.335154 0.335154 0.942163 14.6416 0)" fill="#F86B63"/>
<rect width="20" height="20" rx="5" transform="matrix(-1 0 0 1 27.3394 5)" fill="#CC0C01" fill-opacity="0.75"/>
<path d="M14.404 18C15.0709 17.9991 15.7172 17.7599 16.2337 17.3227C16.7503 16.8855 17.1056 16.2771 17.2397 15.6H18.4566V16.8H19.6145V15.6H20.7724V17.4H21.9303V15.6H22.5093V14.4H17.2397C17.1056 13.7229 16.7503 13.1145 16.2337 12.6773C15.7172 12.2401 15.0709 12.0009 14.404 12C12.8079 12 11.5093 13.3458 11.5093 15C11.5093 16.6542 12.8079 18 14.404 18ZM14.404 13.2C15.3616 13.2 16.1409 14.0076 16.1409 15C16.1409 15.9924 15.3616 16.8 14.404 16.8C13.4464 16.8 12.6672 15.9924 12.6672 15C12.6672 14.0076 13.4464 13.2 14.404 13.2Z" fill="white"/>
</svg>
