<svg width="20" height="20" viewBox="0 0 20 20" fill="none" xmlns="http://www.w3.org/2000/svg">
<circle cx="8" cy="7" r="6" fill="url(#paint0_radial_356_2432)"/>
<path d="M11.7176 11.0314H11.3562L11.2281 10.9079C11.6919 10.3701 11.9468 9.68334 11.9463 8.97313C11.9463 8.3851 11.7719 7.81028 11.4452 7.32135C11.1185 6.83242 10.6542 6.45135 10.1109 6.22632C9.56763 6.00129 8.96983 5.94241 8.3931 6.05713C7.81637 6.17185 7.28661 6.45501 6.87081 6.87081C6.45501 7.28661 6.17185 7.81637 6.05713 8.3931C5.94241 8.96983 6.00129 9.56763 6.22632 10.1109C6.45135 10.6542 6.83242 11.1185 7.32135 11.4452C7.81028 11.7719 8.3851 11.9463 8.97313 11.9463C9.70955 11.9463 10.3865 11.6764 10.9079 11.2281L11.0314 11.3562V11.7176L13.3185 14L14 13.3185L11.7176 11.0314V11.0314ZM8.97313 11.0314C7.83419 11.0314 6.91481 10.1121 6.91481 8.97313C6.91481 7.83419 7.83419 6.91481 8.97313 6.91481C10.1121 6.91481 11.0314 7.83419 11.0314 8.97313C11.0314 10.1121 10.1121 11.0314 8.97313 11.0314Z" fill="white"/>
<path d="M10 19.5C4.7533 19.5 0.5 15.2467 0.5 10H-0.5C-0.5 15.799 4.20101 20.5 10 20.5V19.5ZM19.5 10C19.5 15.2467 15.2467 19.5 10 19.5V20.5C15.799 20.5 20.5 15.799 20.5 10H19.5ZM10 0.5C15.2467 0.5 19.5 4.7533 19.5 10H20.5C20.5 4.20101 15.799 -0.5 10 -0.5V0.5ZM10 -0.5C4.20101 -0.5 -0.5 4.20101 -0.5 10H0.5C0.5 4.7533 4.7533 0.5 10 0.5V-0.5Z" fill="url(#paint1_linear_356_2432)"/>
<defs>
<radialGradient id="paint0_radial_356_2432" cx="0" cy="0" r="1" gradientUnits="userSpaceOnUse" gradientTransform="translate(8 7) rotate(90) scale(6)">
<stop stop-color="#FF1E1E"/>
<stop offset="1" stop-color="#FF3030" stop-opacity="0"/>
</radialGradient>
<linearGradient id="paint1_linear_356_2432" x1="4.5" y1="1" x2="19.5" y2="20.5" gradientUnits="userSpaceOnUse">
<stop stop-color="#FF1E1E"/>
<stop offset="0.10625" stop-color="#A8A8A8" stop-opacity="0.2"/>
<stop offset="1" stop-color="#A8A8A8" stop-opacity="0.2"/>
</linearGradient>
</defs>
</svg>
