<svg width="27" height="25" viewBox="0 0 27 25" fill="none" xmlns="http://www.w3.org/2000/svg">
<rect width="15" height="17" rx="2" transform="matrix(-0.942163 0.335154 0.335154 0.942163 14.3022 0)" fill="#F86B63"/>
<rect width="20" height="20" rx="5" transform="matrix(-1 0 0 1 27 5)" fill="#CC0C01" fill-opacity="0.75"/>
<path d="M20.9025 17.3488C20.5896 17.0357 20.224 16.7801 19.8225 16.5938C20.3887 16.1351 20.75 15.4351 20.75 14.6502C20.75 13.2652 19.595 12.129 18.21 12.1502C16.8463 12.1715 15.7475 13.2827 15.7475 14.6502C15.7475 15.4351 16.11 16.1351 16.675 16.5938C16.2734 16.78 15.9078 17.0356 15.595 17.3488C14.9125 18.0326 14.525 18.935 14.5 19.8975C14.4997 19.9108 14.502 19.9241 14.5069 19.9365C14.5118 19.949 14.5191 19.9603 14.5284 19.9698C14.5377 19.9794 14.5489 19.987 14.5612 19.9922C14.5735 19.9973 14.5867 20 14.6 20H15.3C15.3538 20 15.3988 19.9575 15.4 19.9038C15.4238 19.1788 15.7175 18.5 16.2338 17.9851C16.4979 17.7195 16.8122 17.5089 17.1582 17.3656C17.5043 17.2223 17.8754 17.149 18.25 17.1501C19.0112 17.1501 19.7275 17.4463 20.2662 17.9851C20.7812 18.5 21.075 19.1788 21.1 19.9038C21.1012 19.9575 21.1462 20 21.2 20H21.9C21.9133 20 21.9265 19.9973 21.9388 19.9922C21.9511 19.987 21.9623 19.9794 21.9716 19.9698C21.9809 19.9603 21.9882 19.949 21.9931 19.9365C21.998 19.9241 22.0003 19.9108 22 19.8975C21.975 18.935 21.5875 18.0326 20.9025 17.3488ZM18.25 16.2501C17.8225 16.2501 17.42 16.0839 17.1187 15.7814C16.9676 15.6314 16.8481 15.4525 16.7676 15.2553C16.6871 15.0582 16.6471 14.8468 16.65 14.6339C16.6538 14.2239 16.8175 13.8277 17.1037 13.5339C17.4037 13.2264 17.805 13.0552 18.2337 13.0502C18.6575 13.0465 19.0687 13.2114 19.3712 13.5077C19.6812 13.8114 19.8512 14.2177 19.8512 14.6502C19.8512 15.0776 19.685 15.4789 19.3825 15.7814C19.2341 15.9305 19.0576 16.0487 18.8632 16.1292C18.6688 16.2096 18.4604 16.2507 18.25 16.2501ZM15.1188 14.9801C15.1075 14.8714 15.1013 14.7614 15.1013 14.6502C15.1013 14.4514 15.12 14.2577 15.155 14.0689C15.1638 14.0239 15.14 13.9777 15.0988 13.9589C14.9288 13.8827 14.7725 13.7777 14.6375 13.6452C14.4784 13.491 14.3533 13.3052 14.27 13.0999C14.1867 12.8946 14.1471 12.6742 14.1538 12.4527C14.165 12.0515 14.3263 11.6702 14.6075 11.3828C14.9163 11.0665 15.3313 10.894 15.7725 10.899C16.1713 10.9028 16.5563 11.0565 16.8475 11.329C16.9463 11.4215 17.0313 11.524 17.1025 11.634C17.1275 11.6727 17.1762 11.689 17.2187 11.674C17.4387 11.5977 17.6712 11.544 17.91 11.519C17.98 11.5115 18.02 11.4365 17.9887 11.374C17.5825 10.5703 16.7525 10.0153 15.7925 10.0003C14.4063 9.97904 13.2513 11.1153 13.2513 12.499C13.2513 13.2839 13.6125 13.9839 14.1788 14.4427C13.7813 14.6264 13.415 14.8802 13.0975 15.1976C12.4125 15.8814 12.025 16.7838 12 17.7476C11.9997 17.7609 12.002 17.7742 12.0069 17.7866C12.0118 17.799 12.0191 17.8103 12.0284 17.8199C12.0377 17.8294 12.0489 17.837 12.0612 17.8422C12.0735 17.8474 12.0867 17.8501 12.1 17.8501H12.8013C12.855 17.8501 12.9 17.8076 12.9013 17.7538C12.925 17.0288 13.2188 16.3501 13.735 15.8351C14.1025 15.4676 14.5525 15.2126 15.0438 15.0889C15.0925 15.0764 15.125 15.0301 15.1188 14.9801V14.9801Z" fill="white"/>
</svg>
