<svg width="70" height="70" viewBox="0 0 70 70" fill="none" xmlns="http://www.w3.org/2000/svg">
<ellipse cx="24" cy="22.5" rx="14" ry="12.5" fill="url(#paint0_radial_499_735)"/>
<path d="M46.7074 42.0465C45.7688 41.1071 44.6721 40.3404 43.4674 39.7815C45.1662 38.4053 46.2499 36.3054 46.2499 33.9505C46.2499 29.7956 42.785 26.3869 38.63 26.4507C34.5388 26.5144 31.2425 29.8481 31.2425 33.9505C31.2425 36.3054 32.33 38.4053 34.025 39.7815C32.8202 40.34 31.7233 41.1068 30.785 42.0465C28.7375 44.0977 27.575 46.8051 27.5 49.6925C27.499 49.7325 27.5061 49.7723 27.5207 49.8096C27.5353 49.8469 27.5573 49.8808 27.5852 49.9095C27.6132 49.9382 27.6466 49.9609 27.6835 49.9765C27.7204 49.992 27.76 50 27.8 50H29.9C30.0613 50 30.1963 49.8725 30.2 49.7113C30.2713 47.5363 31.1525 45.5001 32.7013 43.9552C33.4938 43.1585 34.4365 42.5268 35.4747 42.0969C36.513 41.6669 37.6262 41.4471 38.75 41.4503C41.0337 41.4503 43.1824 42.339 44.7987 43.9552C46.3437 45.5001 47.2249 47.5363 47.2999 49.7113C47.3037 49.8725 47.4387 50 47.5999 50H49.6999C49.7399 50 49.7796 49.992 49.8165 49.9765C49.8534 49.9609 49.8868 49.9382 49.9147 49.9095C49.9427 49.8808 49.9646 49.8469 49.9793 49.8096C49.9939 49.7723 50.0009 49.7325 49.9999 49.6925C49.9249 46.8051 48.7624 44.0977 46.7074 42.0465ZM38.75 38.7503C37.4675 38.7503 36.26 38.2516 35.3562 37.3441C34.9027 36.8942 34.5444 36.3574 34.3028 35.766C34.0612 35.1746 33.9412 34.5405 33.95 33.9017C33.9613 32.6718 34.4525 31.483 35.3112 30.6018C36.2112 29.6793 37.415 29.1656 38.7012 29.1506C39.9725 29.1394 41.2062 29.6343 42.1137 30.5231C43.0437 31.4343 43.5537 32.653 43.5537 33.9505C43.5537 35.2329 43.0549 36.4366 42.1475 37.3441C41.7022 37.7915 41.1727 38.1461 40.5895 38.3875C40.0064 38.6288 39.3811 38.7522 38.75 38.7503ZM29.3563 34.9404C29.3225 34.6142 29.3038 34.2842 29.3038 33.9505C29.3038 33.3542 29.36 32.773 29.465 32.2068C29.4913 32.0718 29.42 31.933 29.2963 31.8768C28.7863 31.648 28.3175 31.333 27.9125 30.9356C27.4353 30.4729 27.0598 29.9157 26.8099 29.2998C26.56 28.6838 26.4413 28.0226 26.4613 27.3582C26.4951 26.1545 26.9788 25.0107 27.8225 24.1483C28.7488 23.1995 29.9938 22.6821 31.3175 22.6971C32.5138 22.7083 33.6688 23.1695 34.5425 23.987C34.8388 24.2645 35.0938 24.572 35.3075 24.902C35.3825 25.0182 35.5287 25.067 35.6562 25.022C36.3162 24.7932 37.0137 24.632 37.73 24.557C37.94 24.5345 38.06 24.3095 37.9662 24.122C36.7475 21.7108 34.2575 20.0459 31.3775 20.0009C27.2188 19.9371 23.7538 23.3458 23.7538 27.4969C23.7538 29.8518 24.8376 31.9518 26.5363 33.328C25.3438 33.8792 24.2451 34.6405 23.2926 35.5929C21.2376 37.6441 20.0751 40.3515 20.0001 43.2427C19.9991 43.2827 20.0061 43.3225 20.0207 43.3598C20.0354 43.3971 20.0573 43.431 20.0853 43.4597C20.1132 43.4883 20.1466 43.5111 20.1835 43.5267C20.2204 43.5422 20.2601 43.5502 20.3001 43.5502H22.4038C22.5651 43.5502 22.7001 43.4227 22.7038 43.2614C22.7751 41.0865 23.6563 39.0503 25.2051 37.5054C26.3076 36.4029 27.6575 35.6379 29.1313 35.2667C29.2775 35.2292 29.375 35.0904 29.3563 34.9404V34.9404Z" fill="white"/>
<rect x="0.25" y="0.25" width="69.5" height="69.5" rx="34.75" stroke="url(#paint1_linear_499_735)" stroke-width="0.5"/>
<defs>
<radialGradient id="paint0_radial_499_735" cx="0" cy="0" r="1" gradientUnits="userSpaceOnUse" gradientTransform="translate(24 22.5) rotate(90) scale(12.5 14)">
<stop stop-color="#FF1E1E"/>
<stop offset="1" stop-color="#FF3030" stop-opacity="0"/>
</radialGradient>
<linearGradient id="paint1_linear_499_735" x1="15.75" y1="3.5" x2="68.25" y2="71.75" gradientUnits="userSpaceOnUse">
<stop stop-color="#FF1E1E"/>
<stop offset="0.10625" stop-color="#A8A8A8" stop-opacity="0.2"/>
<stop offset="1" stop-color="#A8A8A8" stop-opacity="0.2"/>
</linearGradient>
</defs>
</svg>
