<svg width="70" height="70" viewBox="0 0 70 70" fill="none" xmlns="http://www.w3.org/2000/svg">
<ellipse cx="24" cy="22.5" rx="14" ry="12.5" fill="url(#paint0_radial_499_695)"/>
<path d="M29.2441 38.8867V40H22.2642V39.0259L25.7578 35.1367C26.1875 34.6582 26.5195 34.2529 26.7539 33.9209C26.9932 33.584 27.1592 33.2837 27.252 33.02C27.3496 32.7515 27.3984 32.478 27.3984 32.1997C27.3984 31.8481 27.3252 31.5308 27.1787 31.2476C27.0371 30.9595 26.8271 30.73 26.5488 30.5591C26.2705 30.3882 25.9336 30.3027 25.5381 30.3027C25.0645 30.3027 24.6689 30.3955 24.3516 30.5811C24.0391 30.7617 23.8047 31.0156 23.6484 31.3428C23.4922 31.6699 23.4141 32.0459 23.4141 32.4707H22.0591C22.0591 31.8701 22.1909 31.3208 22.4546 30.8228C22.7183 30.3247 23.1089 29.9292 23.6265 29.6362C24.144 29.3384 24.7812 29.1895 25.5381 29.1895C26.2119 29.1895 26.7881 29.3091 27.2666 29.5483C27.7451 29.7827 28.1113 30.1147 28.3652 30.5444C28.624 30.9692 28.7534 31.4673 28.7534 32.0386C28.7534 32.3511 28.6997 32.6685 28.5923 32.9907C28.4897 33.3081 28.3457 33.6255 28.1602 33.9429C27.9795 34.2603 27.7671 34.5728 27.5229 34.8804C27.2837 35.188 27.0273 35.4907 26.7539 35.7886L23.8975 38.8867H29.2441ZM37.1514 36.4111V37.5244H29.4463V36.7261L34.2217 29.3359H35.3276L34.1411 31.4746L30.9844 36.4111H37.1514ZM35.6646 29.3359V40H34.3096V29.3359H35.6646ZM42.4951 29.3359L38.0493 40.9155H36.8848L41.3379 29.3359H42.4951ZM49.9702 29.3359V30.0977L45.5537 40H44.1255L48.5347 30.4492H42.7632V29.3359H49.9702Z" fill="white"/>
<path d="M47.5067 19.7667C47.7823 19.749 47.9914 19.5112 47.9736 19.2357L47.685 14.7449C47.6673 14.4694 47.4295 14.2603 47.154 14.278C46.8784 14.2957 46.6693 14.5335 46.6871 14.8091L46.9436 18.8008L42.9519 19.0574C42.6763 19.0751 42.4673 19.3129 42.485 19.5884C42.5027 19.864 42.7404 20.0731 43.016 20.0553L47.5067 19.7667ZM45.6425 18.3226L47.1445 19.6432L47.8048 18.8922L46.3028 17.5716L45.6425 18.3226Z" fill="white"/>
<path d="M15.1836 29.4918C18.9488 21.9279 31.1515 7.57926 46.2906 18.2267" stroke="white"/>
<path d="M53.5806 42.6121C49.8154 50.176 37.3283 60.9458 22.1892 50.2983" stroke="white"/>
<path d="M21.7819 49.4693C21.5063 49.487 21.2973 49.7247 21.315 50.0003L21.6036 54.4911C21.6213 54.7666 21.8591 54.9757 22.1347 54.9579C22.4102 54.9402 22.6193 54.7025 22.6015 54.4269L22.345 50.4351L26.3367 50.1786C26.6123 50.1609 26.8214 49.9231 26.8036 49.6475C26.7859 49.372 26.5482 49.1629 26.2726 49.1806L21.7819 49.4693ZM22.8951 50.253L22.1441 49.5927L21.4838 50.3437L22.2348 51.004L22.8951 50.253Z" fill="white"/>
<rect x="0.25" y="0.25" width="69.5" height="69.5" rx="34.75" stroke="url(#paint1_linear_499_695)" stroke-width="0.5"/>
<defs>
<radialGradient id="paint0_radial_499_695" cx="0" cy="0" r="1" gradientUnits="userSpaceOnUse" gradientTransform="translate(24 22.5) rotate(90) scale(12.5 14)">
<stop stop-color="#FF1E1E"/>
<stop offset="1" stop-color="#FF3030" stop-opacity="0"/>
</radialGradient>
<linearGradient id="paint1_linear_499_695" x1="15.75" y1="3.5" x2="68.25" y2="71.75" gradientUnits="userSpaceOnUse">
<stop stop-color="#FF1E1E"/>
<stop offset="0.10625" stop-color="#A8A8A8" stop-opacity="0.2"/>
<stop offset="1" stop-color="#A8A8A8" stop-opacity="0.2"/>
</linearGradient>
</defs>
</svg>
