<svg width="70" height="70" viewBox="0 0 70 70" fill="none" xmlns="http://www.w3.org/2000/svg">
<ellipse cx="24" cy="22.5" rx="14" ry="12.5" fill="url(#paint0_radial_356_2442)"/>
<path d="M48.58 26.125L38.78 17.375C38.5 17.125 38.22 17 37.8 17H23.8C22.26 17 21 18.125 21 19.5V49.5C21 50.875 22.26 52 23.8 52H46.2C47.74 52 49 50.875 49 49.5V27C49 26.625 48.86 26.375 48.58 26.125ZM37.8 20L45.64 27H37.8V20ZM46.2 49.5H43H41H35H23.8V19.5H35V27C35 28.375 36.26 29.5 37.8 29.5H46.2V43.1202V45.2189V49.5Z" fill="white"/>
<path d="M35.3862 37.2339V38.2422H34.853V37.2339H35.3862ZM35.3213 42.8154V43.7349H34.7881V42.8154H35.3213ZM35.6973 41.6943C35.6973 41.5645 35.6733 41.4539 35.6255 41.3628C35.5799 41.2716 35.5047 41.1908 35.3999 41.1201C35.2974 41.0495 35.1584 40.9811 34.9829 40.915C34.6867 40.8011 34.4258 40.6803 34.2002 40.5527C33.9769 40.4229 33.8026 40.2622 33.6772 40.0708C33.5519 39.8771 33.4893 39.6322 33.4893 39.3359C33.4893 39.0534 33.5565 38.8084 33.6909 38.6011C33.8254 38.3937 34.0111 38.2342 34.248 38.1226C34.4873 38.0086 34.7653 37.9517 35.082 37.9517C35.3236 37.9517 35.5423 37.9881 35.7383 38.061C35.9342 38.1317 36.1029 38.2365 36.2441 38.3755C36.3854 38.5122 36.4937 38.6797 36.5688 38.8779C36.644 39.0762 36.6816 39.3029 36.6816 39.5581H35.7007C35.7007 39.4214 35.6859 39.3006 35.6562 39.1958C35.6266 39.091 35.5833 39.0033 35.5264 38.9326C35.4717 38.862 35.4056 38.8096 35.3281 38.7754C35.2507 38.7389 35.1652 38.7207 35.0718 38.7207C34.9328 38.7207 34.8188 38.748 34.73 38.8027C34.6411 38.8574 34.5762 38.9315 34.5352 39.0249C34.4964 39.116 34.4771 39.2209 34.4771 39.3394C34.4771 39.4556 34.4976 39.557 34.5386 39.6436C34.5819 39.7301 34.6559 39.8099 34.7607 39.8828C34.8656 39.9535 35.0091 40.0264 35.1914 40.1016C35.4876 40.2155 35.7474 40.3385 35.9707 40.4707C36.194 40.6029 36.3683 40.7646 36.4937 40.9561C36.619 41.1475 36.6816 41.3913 36.6816 41.6875C36.6816 41.9814 36.6133 42.2321 36.4766 42.4395C36.3398 42.6445 36.1484 42.8018 35.9023 42.9111C35.6562 43.0182 35.3714 43.0718 35.0479 43.0718C34.8382 43.0718 34.6297 43.0444 34.4224 42.9897C34.215 42.9328 34.027 42.8416 33.8584 42.7163C33.6898 42.591 33.5553 42.4246 33.4551 42.2173C33.3548 42.0076 33.3047 41.7502 33.3047 41.4448H34.2891C34.2891 41.6112 34.3107 41.7502 34.354 41.8618C34.3973 41.9712 34.4543 42.0589 34.5249 42.125C34.5978 42.1888 34.6799 42.2344 34.771 42.2617C34.8621 42.2891 34.9544 42.3027 35.0479 42.3027C35.1937 42.3027 35.3133 42.2765 35.4067 42.2241C35.5024 42.1717 35.5742 42.0999 35.6221 42.0088C35.6722 41.9154 35.6973 41.8105 35.6973 41.6943Z" fill="white"/>
<rect x="30.25" y="35.25" width="9.5" height="10.5" rx="4.75" stroke="white" stroke-width="0.5"/>
<path d="M35 69.5C15.9462 69.5 0.5 54.0538 0.5 35H-0.5C-0.5 54.6061 15.3939 70.5 35 70.5V69.5ZM69.5 35C69.5 54.0538 54.0538 69.5 35 69.5V70.5C54.6061 70.5 70.5 54.6061 70.5 35H69.5ZM35 0.5C54.0538 0.5 69.5 15.9462 69.5 35H70.5C70.5 15.3939 54.6061 -0.5 35 -0.5V0.5ZM35 -0.5C15.3939 -0.5 -0.5 15.3939 -0.5 35H0.5C0.5 15.9462 15.9462 0.5 35 0.5V-0.5Z" fill="url(#paint1_linear_356_2442)"/>
<defs>
<radialGradient id="paint0_radial_356_2442" cx="0" cy="0" r="1" gradientUnits="userSpaceOnUse" gradientTransform="translate(24 22.5) rotate(90) scale(12.5 14)">
<stop stop-color="#FF1E1E"/>
<stop offset="1" stop-color="#FF3030" stop-opacity="0"/>
</radialGradient>
<linearGradient id="paint1_linear_356_2442" x1="15.75" y1="3.5" x2="68.25" y2="71.75" gradientUnits="userSpaceOnUse">
<stop stop-color="#FF1E1E"/>
<stop offset="0.10625" stop-color="#A8A8A8" stop-opacity="0.2"/>
<stop offset="1" stop-color="#A8A8A8" stop-opacity="0.2"/>
</linearGradient>
</defs>
</svg>
