<svg width="70" height="70" viewBox="0 0 70 70" fill="none" xmlns="http://www.w3.org/2000/svg">
<ellipse cx="24" cy="22.5" rx="14" ry="12.5" fill="url(#paint0_radial_356_2427)"/>
<path d="M30.25 36.75H27.75C27.3375 36.75 27 36.4547 27 36.0938V33.9062C27 33.5453 27.3375 33.25 27.75 33.25H30.25C30.6625 33.25 31 33.5453 31 33.9062V36.0938C31 36.4547 30.6625 36.75 30.25 36.75ZM37 36.0938V33.9062C37 33.5453 36.6625 33.25 36.25 33.25H33.75C33.3375 33.25 33 33.5453 33 33.9062V36.0938C33 36.4547 33.3375 36.75 33.75 36.75H36.25C36.6625 36.75 37 36.4547 37 36.0938ZM43 36.0938V33.9062C43 33.5453 42.6625 33.25 42.25 33.25H39.75C39.3375 33.25 39 33.5453 39 33.9062V36.0938C39 36.4547 39.3375 36.75 39.75 36.75H42.25C42.6625 36.75 43 36.4547 43 36.0938ZM37 41.3438V39.1562C37 38.7953 36.6625 38.5 36.25 38.5H33.75C33.3375 38.5 33 38.7953 33 39.1562V41.3438C33 41.7047 33.3375 42 33.75 42H36.25C36.6625 42 37 41.7047 37 41.3438ZM31 41.3438V39.1562C31 38.7953 30.6625 38.5 30.25 38.5H27.75C27.3375 38.5 27 38.7953 27 39.1562V41.3438C27 41.7047 27.3375 42 27.75 42H30.25C30.6625 42 31 41.7047 31 41.3438ZM43 41.3438V39.1562C43 38.7953 42.6625 38.5 42.25 38.5H39.75C39.3375 38.5 39 38.7953 39 39.1562V41.3438C39 41.7047 39.3375 42 39.75 42H42.25C42.6625 42 43 41.7047 43 41.3438ZM49 27.125V46.375C49 47.8242 47.6562 49 46 49H24C22.3438 49 21 47.8242 21 46.375V27.125C21 25.6758 22.3438 24.5 24 24.5H27V21.6562C27 21.2953 27.3375 21 27.75 21H30.25C30.6625 21 31 21.2953 31 21.6562V24.5H39V21.6562C39 21.2953 39.3375 21 39.75 21H42.25C42.6625 21 43 21.2953 43 21.6562V24.5H46C47.6562 24.5 49 25.6758 49 27.125ZM46 46.0469V29.75H24V46.0469C24 46.2273 24.1688 46.375 24.375 46.375H45.625C45.8312 46.375 46 46.2273 46 46.0469Z" fill="white"/>
<path d="M35 69.5C15.9462 69.5 0.5 54.0538 0.5 35H-0.5C-0.5 54.6061 15.3939 70.5 35 70.5V69.5ZM69.5 35C69.5 54.0538 54.0538 69.5 35 69.5V70.5C54.6061 70.5 70.5 54.6061 70.5 35H69.5ZM35 0.5C54.0538 0.5 69.5 15.9462 69.5 35H70.5C70.5 15.3939 54.6061 -0.5 35 -0.5V0.5ZM35 -0.5C15.3939 -0.5 -0.5 15.3939 -0.5 35H0.5C0.5 15.9462 15.9462 0.5 35 0.5V-0.5Z" fill="url(#paint1_linear_356_2427)"/>
<defs>
<radialGradient id="paint0_radial_356_2427" cx="0" cy="0" r="1" gradientUnits="userSpaceOnUse" gradientTransform="translate(24 22.5) rotate(90) scale(12.5 14)">
<stop stop-color="#FF1E1E"/>
<stop offset="1" stop-color="#FF3030" stop-opacity="0"/>
</radialGradient>
<linearGradient id="paint1_linear_356_2427" x1="15.75" y1="3.5" x2="68.25" y2="71.75" gradientUnits="userSpaceOnUse">
<stop stop-color="#FF1E1E"/>
<stop offset="0.10625" stop-color="#A8A8A8" stop-opacity="0.2"/>
<stop offset="1" stop-color="#A8A8A8" stop-opacity="0.2"/>
</linearGradient>
</defs>
</svg>
