<svg width="28" height="25" viewBox="0 0 28 25" fill="none" xmlns="http://www.w3.org/2000/svg">
<rect width="15" height="17" rx="2" transform="matrix(-0.942163 0.335154 0.335154 0.942163 14.4722 0)" fill="#F86B63"/>
<rect width="20" height="20" rx="5" transform="matrix(-1 0 0 1 27.1699 5)" fill="#CC0C01" fill-opacity="0.75"/>
<path d="M13.6721 11.1576C13.8155 11.0778 13.9734 11.027 14.1365 11.0082C14.2996 10.9894 14.4648 11.003 14.6227 11.0481C14.7806 11.0932 14.9281 11.1689 15.0566 11.2711C15.1852 11.3732 15.2924 11.4997 15.3721 11.6433L17.6927 15.8195L19.0208 14.4914C19.1361 14.372 19.2741 14.2768 19.4266 14.2113C19.5791 14.1458 19.7431 14.1113 19.9091 14.1098C20.075 14.1084 20.2396 14.14 20.3933 14.2029C20.5469 14.2657 20.6864 14.3585 20.8038 14.4759C20.9212 14.5933 21.014 14.7328 21.0768 14.8864C21.1397 15.0401 21.1713 15.2047 21.1699 15.3706C21.1684 15.5366 21.1339 15.7006 21.0684 15.8531C21.0029 16.0056 20.9077 16.1436 20.7883 16.2589L18.2883 18.7589C18.0521 18.9958 17.7333 19.1258 17.4046 19.1258L17.2314 19.1133C17.0398 19.0865 16.8571 19.0156 16.6975 18.9061C16.538 18.7967 16.4061 18.6517 16.3121 18.4826L13.1871 12.8576C13.1073 12.7142 13.0565 12.5564 13.0377 12.3933C13.0189 12.2302 13.0324 12.065 13.0775 11.9072C13.1225 11.7493 13.1982 11.6019 13.3002 11.4733C13.4022 11.3447 13.5286 11.2374 13.6721 11.1576V11.1576Z" fill="white"/>
</svg>
