<svg width="20" height="20" viewBox="0 0 20 20" fill="none" xmlns="http://www.w3.org/2000/svg">
<path d="M17.4492 6.91151C17.4408 6.28169 17.3227 5.65814 17.1002 5.06874C16.9073 4.57158 16.6126 4.12007 16.2349 3.74306C15.8573 3.36605 15.405 3.07183 14.907 2.87919C14.3243 2.66078 13.7086 2.54269 13.0862 2.52993C12.2849 2.49417 12.0308 2.48419 9.99673 2.48419C7.96263 2.48419 7.70191 2.48419 6.90643 2.52993C6.28434 2.54278 5.66894 2.66088 5.08641 2.87919C4.58834 3.07169 4.13601 3.36587 3.75836 3.7429C3.3807 4.11992 3.08604 4.5715 2.89322 5.06874C2.67401 5.65012 2.55597 6.26464 2.5442 6.88573C2.50839 7.68654 2.49756 7.94017 2.49756 9.97089C2.49756 12.0016 2.49756 12.2611 2.5442 13.056C2.5567 13.6781 2.67415 14.2918 2.89322 14.8747C3.08636 15.3718 3.38125 15.8232 3.75903 16.2C4.13681 16.5769 4.58918 16.871 5.08724 17.0634C5.66818 17.2906 6.28369 17.4172 6.90727 17.4376C7.70941 17.4734 7.96346 17.4842 9.99756 17.4842C12.0317 17.4842 12.2924 17.4842 13.0879 17.4376C13.7102 17.4254 14.3259 17.3076 14.9087 17.0892C15.4066 16.8963 15.8587 16.602 16.2363 16.2251C16.6139 15.8481 16.9087 15.3967 17.1019 14.8996C17.321 14.3175 17.4384 13.7038 17.4509 13.081C17.4867 12.281 17.4976 12.0274 17.4976 9.99583C17.4959 7.96512 17.4959 7.70733 17.4492 6.91151V6.91151ZM9.99173 13.8111C7.86434 13.8111 6.14094 12.0906 6.14094 9.96673C6.14094 7.84288 7.86434 6.12234 9.99173 6.12234C11.013 6.12234 11.9925 6.52738 12.7146 7.24834C13.4368 7.9693 13.8425 8.94714 13.8425 9.96673C13.8425 10.9863 13.4368 11.9642 12.7146 12.6851C11.9925 13.4061 11.013 13.8111 9.99173 13.8111V13.8111ZM13.9958 6.87659C13.8778 6.8767 13.761 6.85358 13.652 6.80857C13.543 6.76356 13.444 6.69753 13.3606 6.61427C13.2772 6.531 13.2111 6.43214 13.166 6.32333C13.1209 6.21452 13.0977 6.0979 13.0978 5.98015C13.0978 5.86248 13.1211 5.74596 13.1662 5.63725C13.2113 5.52854 13.2774 5.42976 13.3607 5.34656C13.4441 5.26336 13.543 5.19736 13.6519 5.15233C13.7608 5.1073 13.8775 5.08412 13.9954 5.08412C14.1132 5.08412 14.2299 5.1073 14.3388 5.15233C14.4477 5.19736 14.5467 5.26336 14.63 5.34656C14.7133 5.42976 14.7795 5.52854 14.8246 5.63725C14.8697 5.74596 14.8929 5.86248 14.8929 5.98015C14.8929 6.47577 14.4914 6.87659 13.9958 6.87659Z" fill="white"/>
<path d="M9.99518 12.485C11.3773 12.485 12.4977 11.3646 12.4977 9.98248C12.4977 8.60039 11.3773 7.47998 9.99518 7.47998C8.61308 7.47998 7.49268 8.60039 7.49268 9.98248C7.49268 11.3646 8.61308 12.485 9.99518 12.485Z" fill="white"/>
</svg>
