<svg width="60" height="60" viewBox="0 0 60 60" fill="none" xmlns="http://www.w3.org/2000/svg">
<path fill-rule="evenodd" clip-rule="evenodd" d="M28.3584 1.93591C17.4488 2.61466 11.7478 8.79278 11.25 19.965H22.2553C22.3931 16.095 24.5531 13.2018 28.575 12.7753C32.5228 12.3562 36.2681 13.2965 37.4025 15.9956C38.6278 18.9112 35.8772 22.2993 34.5694 23.7215C32.1488 26.3587 28.2169 28.2825 26.1787 31.1278C24.1809 33.9159 23.8256 37.5843 23.6719 42.074H33.3713C33.5072 39.2034 33.6984 36.4537 35.0044 34.6697C37.1288 31.7709 40.3013 30.4125 42.96 28.1231C45.4997 25.935 48.1716 23.2978 48.6253 19.2159C49.9875 6.99935 40.0153 1.20841 28.3584 1.93591Z" fill="#191826"/>
<path d="M28.6076 58.1249C31.9897 58.1249 34.7314 55.4247 34.7314 52.0939C34.7314 48.7631 31.9897 46.063 28.6076 46.063C25.2256 46.063 22.4839 48.7631 22.4839 52.0939C22.4839 55.4247 25.2256 58.1249 28.6076 58.1249Z" fill="#191826"/>
</svg>
