<svg width="260" height="260" viewBox="0 0 260 260" fill="none" xmlns="http://www.w3.org/2000/svg">
<g filter="url(#filter0_f_50_10)">
<path d="M230 130C230 185.228 185.228 230 130 230C74.7715 230 30 185.228 30 130C30 74.7715 74.7715 30 130 30C185.228 30 230 74.7715 230 130Z" fill="#CC0C01" fill-opacity="0.16"/>
</g>
<g opacity="0.6">
<g filter="url(#filter1_f_50_10)">
<path d="M145 130C145 138.284 138.284 145 130 145C121.716 145 115 138.284 115 130C115 121.716 121.716 115 130 115C138.284 115 145 121.716 145 130Z" fill="#C4C4C4" fill-opacity="0.1"/>
</g>
<g filter="url(#filter2_f_50_10)">
<circle cx="130" cy="130" r="10" fill="#290A12"/>
<circle cx="130" cy="130" r="9.75" stroke="#626262" stroke-width="0.5"/>
</g>
<g filter="url(#filter3_f_50_10)">
<circle cx="130" cy="130" r="2" fill="#CC0C01"/>
</g>
</g>
<defs>
<filter id="filter0_f_50_10" x="0" y="0" width="260" height="260" filterUnits="userSpaceOnUse" color-interpolation-filters="sRGB">
<feFlood flood-opacity="0" result="BackgroundImageFix"/>
<feBlend mode="normal" in="SourceGraphic" in2="BackgroundImageFix" result="shape"/>
<feGaussianBlur stdDeviation="15" result="effect1_foregroundBlur_50_10"/>
</filter>
<filter id="filter1_f_50_10" x="107" y="107" width="46" height="46" filterUnits="userSpaceOnUse" color-interpolation-filters="sRGB">
<feFlood flood-opacity="0" result="BackgroundImageFix"/>
<feBlend mode="normal" in="SourceGraphic" in2="BackgroundImageFix" result="shape"/>
<feGaussianBlur stdDeviation="4" result="effect1_foregroundBlur_50_10"/>
</filter>
<filter id="filter2_f_50_10" x="118" y="118" width="24" height="24" filterUnits="userSpaceOnUse" color-interpolation-filters="sRGB">
<feFlood flood-opacity="0" result="BackgroundImageFix"/>
<feBlend mode="normal" in="SourceGraphic" in2="BackgroundImageFix" result="shape"/>
<feGaussianBlur stdDeviation="1" result="effect1_foregroundBlur_50_10"/>
</filter>
<filter id="filter3_f_50_10" x="126" y="126" width="8" height="8" filterUnits="userSpaceOnUse" color-interpolation-filters="sRGB">
<feFlood flood-opacity="0" result="BackgroundImageFix"/>
<feBlend mode="normal" in="SourceGraphic" in2="BackgroundImageFix" result="shape"/>
<feGaussianBlur stdDeviation="1" result="effect1_foregroundBlur_50_10"/>
</filter>
</defs>
</svg>
