<svg width="70" height="70" viewBox="0 0 70 70" fill="none" xmlns="http://www.w3.org/2000/svg">
<ellipse cx="24" cy="22.5" rx="14" ry="12.5" fill="url(#paint0_radial_356_2382)"/>
<path d="M43.75 45.5H26.25V24.5H43.75V26.25H47.25V19.25C47.25 17.325 45.675 15.75 43.75 15.75H26.25C24.325 15.75 22.75 17.325 22.75 19.25V50.75C22.75 52.675 24.325 54.25 26.25 54.25H43.75C45.675 54.25 47.25 52.675 47.25 50.75V43.75H43.75V45.5ZM26.25 19.25H43.75V21H26.25V19.25ZM43.75 50.75H26.25V49H43.75V50.75Z" fill="white"/>
<path opacity="0.3" d="M26.25 19.25H43.75V21H26.25V19.25ZM26.25 49H43.75V50.75H26.25V49Z" fill="white"/>
<path d="M51.5636 27.7436C51.6432 27.6003 51.6728 27.4309 51.6459 27.2719C51.619 27.113 51.5379 26.9772 51.4201 26.8941C51.3022 26.811 51.1572 26.7872 51.0163 26.8279C50.8754 26.8686 50.75 26.9705 50.6673 27.1115L49.6911 28.8199C49.6115 28.9631 49.5819 29.1325 49.6088 29.2915C49.6357 29.4505 49.7168 29.5862 49.8346 29.6693C49.9525 29.7524 50.0975 29.7762 50.2384 29.7355C50.3793 29.6948 50.5047 29.5929 50.5874 29.4519L51.5636 27.7436V27.7436ZM54.7511 28.5155C54.8206 28.6545 54.8372 28.8239 54.7971 28.9862C54.757 29.1486 54.6636 29.2908 54.5374 29.3815L52.2907 30.9939C52.228 31.0423 52.1584 31.0763 52.086 31.094C52.0136 31.1116 51.9399 31.1126 51.8693 31.0967C51.7988 31.0808 51.7328 31.0485 51.6753 31.0016C51.6178 30.9547 51.57 30.8943 51.5347 30.8238C51.4995 30.7534 51.4774 30.6744 51.47 30.5916C51.4625 30.5088 51.4698 30.4239 51.4913 30.342C51.5128 30.26 51.5482 30.1827 51.5954 30.1145C51.6425 30.0464 51.7004 29.989 51.7656 29.9455L54.0122 28.3331C54.1386 28.2426 54.2874 28.2109 54.4259 28.2451C54.5644 28.2793 54.6814 28.3766 54.7511 28.5155V28.5155ZM48.2341 28.2245C48.11 27.9544 47.9281 27.7281 47.7043 27.5653C47.4804 27.4025 47.2212 27.3081 46.9493 27.2903C46.6773 27.2724 46.4008 27.3316 46.1436 27.4629C45.8863 27.5941 45.6562 27.7933 45.4732 28.0432L38.8935 37.031C38.7085 37.2838 38.5942 37.592 38.5669 37.9109C38.5396 38.2299 38.6009 38.543 38.7418 38.8051L39.471 40.1621C39.6017 40.4051 39.795 40.5929 40.0265 40.7018C40.2579 40.8107 40.5174 40.836 40.7722 40.7744L41.8865 40.5051C41.9981 41.3632 42.4033 42.1107 43.0142 42.5856C43.6252 43.0604 44.3925 43.2241 45.1498 43.0413C45.907 42.8584 46.593 42.3437 47.0588 41.6089C47.5246 40.8741 47.7328 39.9784 47.6379 39.1163L50.3275 38.4661C50.594 38.4017 50.8481 38.2659 51.0683 38.0699C51.2886 37.8738 51.4687 37.6234 51.5937 37.3394C51.7186 37.0553 51.7848 36.746 51.7866 36.4371C51.7885 36.1283 51.726 35.8288 51.6043 35.5639L48.2339 28.2253L48.2341 28.2245ZM46.5594 39.3754C46.6074 39.9086 46.4716 40.4578 46.1805 40.907C45.8895 41.3562 45.4661 41.6703 44.9998 41.7829C44.5334 41.8955 44.0606 41.7978 43.6812 41.5105C43.3019 41.2232 43.0456 40.7687 42.9666 40.243L46.5594 39.3754ZM51.5977 32.9629C51.6378 32.8004 51.7313 32.6581 51.8577 32.5674C51.9841 32.4767 52.133 32.4449 52.2717 32.4791L53.6658 32.8232C53.8044 32.8574 53.9215 32.9548 53.9911 33.0939C54.0608 33.233 54.0774 33.4025 54.0373 33.565C53.9972 33.7275 53.9037 33.8697 53.7773 33.9604C53.6509 34.0512 53.502 34.0829 53.3633 34.0487L51.9692 33.7046C51.8306 33.6704 51.7136 33.573 51.6439 33.4339C51.5742 33.2948 51.5576 33.1254 51.5977 32.9629Z" fill="white"/>
<path d="M35 69.5C15.9462 69.5 0.5 54.0538 0.5 35H-0.5C-0.5 54.6061 15.3939 70.5 35 70.5V69.5ZM69.5 35C69.5 54.0538 54.0538 69.5 35 69.5V70.5C54.6061 70.5 70.5 54.6061 70.5 35H69.5ZM35 0.5C54.0538 0.5 69.5 15.9462 69.5 35H70.5C70.5 15.3939 54.6061 -0.5 35 -0.5V0.5ZM35 -0.5C15.3939 -0.5 -0.5 15.3939 -0.5 35H0.5C0.5 15.9462 15.9462 0.5 35 0.5V-0.5Z" fill="url(#paint1_linear_356_2382)"/>
<defs>
<radialGradient id="paint0_radial_356_2382" cx="0" cy="0" r="1" gradientUnits="userSpaceOnUse" gradientTransform="translate(24 22.5) rotate(90) scale(12.5 14)">
<stop stop-color="#FF1E1E"/>
<stop offset="1" stop-color="#FF3030" stop-opacity="0"/>
</radialGradient>
<linearGradient id="paint1_linear_356_2382" x1="15.75" y1="3.5" x2="68.25" y2="71.75" gradientUnits="userSpaceOnUse">
<stop stop-color="#FF1E1E"/>
<stop offset="0.10625" stop-color="#A8A8A8" stop-opacity="0.2"/>
<stop offset="1" stop-color="#A8A8A8" stop-opacity="0.2"/>
</linearGradient>
</defs>
</svg>
